<?xml version="1.0" encoding="utf-8"?>
<!-- Generator: Adobe Illustrator 16.0.0, SVG Export Plug-In . SVG Version: 6.00 Build 0)  -->
<!DOCTYPE svg PUBLIC "-//W3C//DTD SVG 1.1//EN" "http://www.w3.org/Graphics/SVG/1.1/DTD/svg11.dtd">
<svg version="1.1" id="Capa_1" xmlns="http://www.w3.org/2000/svg" xmlns:xlink="http://www.w3.org/1999/xlink" x="0px" y="0px"
	 width="400px" height="400px" viewBox="0 0 400 400" style="enable-background:new 0 0 400 400;" xml:space="preserve">
<style type="text/css">
<![CDATA[
	.st0{fill-rule:evenodd;clip-rule:evenodd;}
]]>
</style>
<path class="st0" d="M367,315v-49h-69v49H367z M367,105V56h-69v49H367z M367,175v-49h-69v49H367z M388,395.95H188V29h200V395.95z
	 M208,315h69v-49h-69V315z M34,345h49v-49H34V345z M83,275v-49H34v49H83z M153,296h-49v49h49V296z M153,275v-49h-49v49H153z M83,156
	H34v49h49V156z M153,156h-49v49h49V156z M208,105h69V56h-69V105z M277,196h-69v49h69V196z M208,126v49h69v-49H208z M367,245v-49h-69
	v49H367z M174,395.95H14V129h160V395.95z"/>
</svg>
