<?xml version="1.0" encoding="utf-8"?>
<!-- Generator: Adobe Illustrator 16.0.0, SVG Export Plug-In . SVG Version: 6.00 Build 0)  -->
<!DOCTYPE svg PUBLIC "-//W3C//DTD SVG 1.1//EN" "http://www.w3.org/Graphics/SVG/1.1/DTD/svg11.dtd">
<svg version="1.1" id="Capa_2" xmlns="http://www.w3.org/2000/svg" xmlns:xlink="http://www.w3.org/1999/xlink" x="0px" y="0px"
	 width="400px" height="400px" viewBox="0 0 400 400" style="enable-background:new 0 0 400 400;" xml:space="preserve">
<style type="text/css">
<![CDATA[
	.st0{fill-rule:evenodd;clip-rule:evenodd;}
	
		.st1{fill-rule:evenodd;clip-rule:evenodd;fill:none;stroke:#000000;stroke-width:15;stroke-linecap:round;stroke-linejoin:round;stroke-miterlimit:3;}
]]>
</style>
<g>
	<path class="st0" d="M354.7,20.05h32.1v373.2h-32.1v-4.3h-48.15V363.3h48.15v-22.35h-79.4V315.3h79.4v-22.35h-48.15V267.3h48.15
		v-22.35h-48.15V219.3h48.15v-22.35h-79.4V171.3h79.4v-22.35h-48.15V123.3h48.15v-22.35h-48.15V75.3h48.15V52.95h-79.4V27.3h79.4
		V20.05z M158.95,90.75c9.433,9.4,14.15,20.767,14.15,34.1c0,13.3-4.717,24.65-14.15,34.05c-9.4,9.434-20.75,14.15-34.05,14.15
		c-13.3,0-24.667-4.716-34.1-14.15c-9.4-9.4-14.1-20.75-14.1-34.05c0-13.333,4.7-24.7,14.1-34.1c9.434-9.4,20.8-14.1,34.1-14.1
		C138.2,76.65,149.55,81.35,158.95,90.75z"/>
	<path class="st1" d="M217.8,180.4c-46.966,63.067-78.533,130.984-94.7,203.75c-21.7-74.534-53.45-142.884-95.25-205.05
		c-0.133-0.233-0.25-0.45-0.35-0.65c-0.167-0.3-0.317-0.6-0.45-0.9c-7.133-14.267-10.7-30.017-10.7-47.25
		c0-29.5,10.417-54.683,31.25-75.55C68.467,33.917,93.65,23.5,123.15,23.5s54.667,10.417,75.5,31.25
		c20.833,20.867,31.25,46.05,31.25,75.55c0,14.167-2.384,27.333-7.15,39.5C221.283,173.433,219.634,176.967,217.8,180.4z"/>
</g>
</svg>
