<?xml version="1.0" encoding="utf-8"?>
<!-- Generator: Adobe Illustrator 16.0.0, SVG Export Plug-In . SVG Version: 6.00 Build 0)  -->
<!DOCTYPE svg PUBLIC "-//W3C//DTD SVG 1.1//EN" "http://www.w3.org/Graphics/SVG/1.1/DTD/svg11.dtd">
<svg version="1.1" xmlns="http://www.w3.org/2000/svg" xmlns:xlink="http://www.w3.org/1999/xlink" x="0px" y="0px" width="400px"
	 height="400px" viewBox="0 0 400 400" style="enable-background:new 0 0 400 400;" xml:space="preserve">
<style type="text/css">
<![CDATA[
	.st0{fill-rule:evenodd;clip-rule:evenodd;}
	.st1{fill-rule:evenodd;clip-rule:evenodd;fill:#FFFFFF;}
]]>
</style>
<g id="Capa_1">
	<path class="st0" d="M339.45,338.4c-38.367,38.366-84.684,57.55-138.95,57.55S99.917,376.767,61.55,338.4
		C23.183,300.033,4,253.717,4,199.45C4,145.183,23.183,98.867,61.55,60.5S146.233,2.95,200.5,2.95S301.083,22.133,339.45,60.5
		C377.816,98.867,397,145.183,397,199.45C397,253.717,377.816,300.033,339.45,338.4z"/>
</g>
<g id="Capa_2">
	<path class="st1" d="M234.25,73.65c7.833,7.833,11.75,17.267,11.75,28.3c0,11.033-3.917,20.45-11.75,28.25
		c-7.8,7.833-17.217,11.75-28.25,11.75s-20.467-3.917-28.3-11.75c-7.8-7.8-11.7-17.217-11.7-28.25c0-11.034,3.9-20.467,11.7-28.3
		c7.833-7.8,17.267-11.7,28.3-11.7S226.45,65.85,234.25,73.65z M130.05,157h111.9v150H281v31H130.05v-31h58.9V188h-58.9V157z"/>
</g>
</svg>
