<?xml version="1.0" encoding="utf-8"?>
<!-- Generator: Adobe Illustrator 16.0.0, SVG Export Plug-In . SVG Version: 6.00 Build 0)  -->
<!DOCTYPE svg PUBLIC "-//W3C//DTD SVG 1.1//EN" "http://www.w3.org/Graphics/SVG/1.1/DTD/svg11.dtd">
<svg version="1.1" id="Capa_1" xmlns="http://www.w3.org/2000/svg" xmlns:xlink="http://www.w3.org/1999/xlink" x="0px" y="0px"
	 width="400px" height="400px" viewBox="0 0 400 400" style="enable-background:new 0 0 400 400;" xml:space="preserve">
<style type="text/css">
<![CDATA[
	.st0{fill-rule:evenodd;clip-rule:evenodd;}
]]>
</style>
<path class="st0" d="M286.55,102.9L230,46.35L75.45,200.9L230,355.55l56.55-56.6l-98-98.05L286.55,102.9z M400,200
	c0,55.233-19.517,102.366-58.55,141.4C302.384,380.467,255.233,400,200,400S97.633,380.467,58.6,341.4
	C19.533,302.366,0,255.233,0,200S19.533,97.617,58.6,58.55C97.633,19.517,144.767,0,200,0s102.384,19.517,141.45,58.55
	C380.483,97.617,400,144.767,400,200z"/>
</svg>
