<?xml version="1.0" encoding="utf-8"?>
<!-- Generator: Adobe Illustrator 16.0.0, SVG Export Plug-In . SVG Version: 6.00 Build 0)  -->
<!DOCTYPE svg PUBLIC "-//W3C//DTD SVG 1.1//EN" "http://www.w3.org/Graphics/SVG/1.1/DTD/svg11.dtd">
<svg version="1.1" id="Capa_1" xmlns="http://www.w3.org/2000/svg" xmlns:xlink="http://www.w3.org/1999/xlink" x="0px" y="0px"
	 width="400px" height="400px" viewBox="0 0 400 400" style="enable-background:new 0 0 400 400;" xml:space="preserve">
<style type="text/css">
<![CDATA[
	
		.st0{fill-rule:evenodd;clip-rule:evenodd;fill:none;stroke:#FFFFFF;stroke-width:40;stroke-linecap:round;stroke-linejoin:round;stroke-miterlimit:3;}
	
		.st1{fill-rule:evenodd;clip-rule:evenodd;fill:none;stroke:#FFFFFF;stroke-width:40;stroke-linecap:square;stroke-linejoin:round;stroke-miterlimit:3;}
]]>
</style>
<g>
	<path class="st0" d="M197.95,54.95c0.35,0,0.7,0,1.05,0c40.033,0,74.2,14.15,102.5,42.45c28.333,28.333,42.5,62.517,42.5,102.55
		c0,1.879-0.033,3.746-0.1,5.6c-1.263,37.661-15.396,69.978-42.4,96.95c-28.3,28.3-62.467,42.45-102.5,42.45c-0.35,0-0.7,0-1.05,0
		 M54.05,205.55c-0.066-1.854-0.1-3.721-0.1-5.6c0-40.034,14.15-74.217,42.45-102.55c28.085-28.053,61.936-42.203,101.55-42.45
		 M54.05,205.55c1.261,37.661,15.377,69.978,42.35,96.95c28.085,28.053,61.936,42.202,101.55,42.45"/>
	<path class="st1" d="M343.9,205.55h35.6 M197.95,20v34.95V113 M54.05,205.55H20.5 M113.5,205.55H54.05 M197.95,344.95V288
		 M197.95,344.95V381 M343.9,205.55h-57.4"/>
</g>
</svg>
