<?xml version="1.0" encoding="utf-8"?>
<!-- Generator: Adobe Illustrator 16.0.0, SVG Export Plug-In . SVG Version: 6.00 Build 0)  -->
<!DOCTYPE svg PUBLIC "-//W3C//DTD SVG 1.1//EN" "http://www.w3.org/Graphics/SVG/1.1/DTD/svg11.dtd">
<svg version="1.1" id="Capa_1" xmlns="http://www.w3.org/2000/svg" xmlns:xlink="http://www.w3.org/1999/xlink" x="0px" y="0px"
	 width="400px" height="400px" viewBox="0 0 400 400" style="enable-background:new 0 0 400 400;" xml:space="preserve">
<style type="text/css">
<![CDATA[
	.st0{fill-rule:evenodd;clip-rule:evenodd;}
]]>
</style>
<path class="st0" d="M341.4,341.4C302.366,380.467,255.233,400,200,400S97.617,380.467,58.55,341.4C19.517,302.366,0,255.233,0,200
	S19.517,97.617,58.55,58.55C97.617,19.517,144.767,0,200,0s102.366,19.517,141.4,58.55C380.467,97.617,400,144.767,400,200
	S380.467,302.366,341.4,341.4z M170,355.525L324.55,200.9L170,46.325L113.425,102.9l98.025,98l-98.025,98.05L170,355.525z"/>
</svg>
