<?xml version="1.0" encoding="utf-8"?>
<!-- Generator: Adobe Illustrator 16.0.0, SVG Export Plug-In . SVG Version: 6.00 Build 0)  -->
<!DOCTYPE svg PUBLIC "-//W3C//DTD SVG 1.1//EN" "http://www.w3.org/Graphics/SVG/1.1/DTD/svg11.dtd">
<svg version="1.1" xmlns="http://www.w3.org/2000/svg" xmlns:xlink="http://www.w3.org/1999/xlink" x="0px" y="0px" width="400px"
	 height="400px" viewBox="0 0 400 400" style="enable-background:new 0 0 400 400;" xml:space="preserve">
<style type="text/css">
<![CDATA[
	.st0{fill-rule:evenodd;clip-rule:evenodd;}
	.st1{fill-rule:evenodd;clip-rule:evenodd;fill:#FF0000;}
]]>
</style>
<g id="Layer_2">
	<g>
		<path class="st1" d="M329.85,127.55c0.101,0.3,0.184,0.6,0.25,0.9h-0.25V127.55z"/>
		<path class="st0" d="M373.35,83.15c2.9,2.9,4.351,6.4,4.351,10.5v215.8c0,4.133-1.434,7.666-4.3,10.6l-0.101,0.101
			c-2.934,2.866-6.467,4.3-10.6,4.3h-42.45c-4.134,0-7.65-1.45-10.55-4.351c-2.967-2.966-4.45-6.517-4.45-10.649v-146H284.7
			c-4.134,0-7.65-1.45-10.55-4.35c-2.967-2.967-4.45-6.517-4.45-10.65s1.467-7.65,4.399-10.55c0-0.033,0.017-0.05,0.051-0.05
			c2.899-2.934,6.416-4.4,10.55-4.4h35.55c4.134,0,7.684,1.483,10.65,4.45c1.8,1.8,3.05,3.883,3.75,6.25
			c0.033,0.133,0.083,0.3,0.149,0.5c0.101,0.3,0.184,0.65,0.25,1.05c0.134,0.867,0.2,1.783,0.2,2.75v146h12.45V134.8
			c-6-2.533-11-5.6-15-9.2l-0.05-0.05c-0.467-0.466-0.917-0.917-1.351-1.35c-0.6-0.567-1.133-1.133-1.6-1.7l-0.05-0.05
			c-1.534-1.733-2.884-3.534-4.051-5.4c-1.033-1.7-1.916-3.466-2.649-5.3c-1.2-2.633-2.084-5.433-2.65-8.4
			c-0.3-1.567-0.517-3.184-0.649-4.85v-0.05c-0.601-7.067,0.433-15.034,3.1-23.9l-23.75-24c-2.866-3-4.3-6.533-4.3-10.6
			c0-4.167,1.5-7.7,4.5-10.6l0.05-0.05c2.9-2.867,6.417-4.3,10.55-4.3h0.05c4.101,0.033,7.601,1.533,10.5,4.5L373.35,83.15z
			 M342.05,85c-2.866,3.3-4.267,6.417-4.2,9.35c0,1.267,0.301,2.5,0.9,3.7c0.7,1.5,1.85,2.95,3.45,4.35c0.566,0.5,1.2,1,1.899,1.5
			c-1.399,5.067-0.566,8.117,2.5,9.15c1.5,0.5,3.534,0.517,6.101,0.05V97.75L342.05,85z"/>
	</g>
</g>
<g id="Layer_1">
	<path class="st0" d="M239.95,196.2V81.15H80V196.2H239.95z M276.7,42.15c10,0,15,5,15,15v163.7c0,10-5,15-15,15H260l-27.4,108
		h54.45c1.367,0,2.55,0.5,3.55,1.5c0.967,0.967,1.45,2.134,1.45,3.5v24.301c0,1.366-0.483,2.55-1.45,3.55
		c-1,0.967-2.183,1.45-3.55,1.45h-256c-1.367,0-2.533-0.483-3.5-1.45c-1-1-1.5-2.184-1.5-3.55V347c0-1.366,0.5-2.533,1.5-3.5
		c0.967-1,2.133-1.5,3.5-1.5H85.3L58.5,235.85H41.8c-10,0-15-5-15-15V57.15c0-10,5-15,15-15h39.3V40.9c0-10,5-15,15-15h126.3
		c10,0,15,5,15,15v1.25H276.7z"/>
</g>
</svg>
