<?xml version="1.0" encoding="utf-8"?>
<!-- Generator: Adobe Illustrator 16.0.0, SVG Export Plug-In . SVG Version: 6.00 Build 0)  -->
<!DOCTYPE svg PUBLIC "-//W3C//DTD SVG 1.1//EN" "http://www.w3.org/Graphics/SVG/1.1/DTD/svg11.dtd">
<svg version="1.1" id="Capa_3" xmlns="http://www.w3.org/2000/svg" xmlns:xlink="http://www.w3.org/1999/xlink" x="0px" y="0px"
	 width="400px" height="400px" viewBox="0 0 400 400" style="enable-background:new 0 0 400 400;" xml:space="preserve">
<style type="text/css">
<![CDATA[
	.st0{fill-rule:evenodd;clip-rule:evenodd;}
	.st1{fill-rule:evenodd;clip-rule:evenodd;fill:#914200;}
]]>
</style>
<g>
	<path class="st1" d="M332.25,354.25c-87.134,33.9-174.767,35.316-262.9,4.25c-20.6-7.366-33.283-22.65-38.05-45.85
		c-1.933-30.334,5.117-49.167,21.15-56.5c0.066-0.034,0.167-0.067,0.3-0.101c12.433-4.566,29.633-3.467,51.6,3.3
		c0.333,0.067,0.65,0.134,0.95,0.2c54.567,10.533,102.033-1.184,142.4-35.149c25-15.233,47.7-22.017,68.1-20.351
		c0.2,0.033,0.417,0.066,0.65,0.101c22.899,2.399,42.616,16.666,59.149,42.8C396.866,294.983,382.417,330.75,332.25,354.25z
		 M167.1,176.15c-4.8-3.533-10.95-6.316-18.45-8.35c15.833-18.066,39.617-24.033,71.35-17.9c1.033,0.2,2.083,0.2,3.15,0
		c31.633-5.2,48.25-20.883,49.85-47.05c22.5,16.7,34.267,44.367,35.3,83c-20.733,0.066-43.3,7.367-67.7,21.9
		c-25.433-4.233-49.917-14.767-73.45-31.6H167.1z M107.3,181.6c9.067-0.2,17.184,0.183,24.35,1.15c0.367,0.033,0.75,0.067,1.15,0.1
		c10.333,1.433,18.3,4.066,23.9,7.9c20.8,14.866,42.283,25.25,64.45,31.15c-32.634,21.466-69.984,28.166-112.05,20.1
		c-20.3-6.2-37.283-8.184-50.95-5.95c0.367-16.267,3.934-29,10.7-38.2c8.2-10.267,20.967-15.684,38.3-16.25
		C107.217,181.6,107.267,181.6,107.3,181.6z"/>
	<path class="st0" d="M279.95,63.75c0-3.233,1.149-6,3.45-8.3c2.3-2.3,5.066-3.45,8.3-3.45s6,1.15,8.3,3.45
		c2.3,2.3,3.45,5.066,3.45,8.3s-1.15,6-3.45,8.3c-2.3,2.3-5.066,3.45-8.3,3.45s-6-1.15-8.3-3.45
		C281.1,69.75,279.95,66.983,279.95,63.75z M199.45,129.5c-1.667,1.667-3.667,2.5-6,2.5c-2.333,0-4.333-0.833-6-2.5
		c-1.667-1.667-2.5-3.667-2.5-6s0.833-4.333,2.5-6c1.667-1.667,3.667-2.5,6-2.5c2.333,0,4.333,0.833,6,2.5
		c1.666,1.667,2.5,3.667,2.5,6S201.116,127.833,199.45,129.5z M97.25,27.5c3.367,0,6.25,1.2,8.65,3.6s3.6,5.283,3.6,8.65
		s-1.2,6.25-3.6,8.65s-5.283,3.6-8.65,3.6S91,50.8,88.6,48.4S85,43.117,85,39.75s1.2-6.25,3.6-8.65S93.883,27.5,97.25,27.5z"/>
</g>
</svg>
