<?xml version="1.0" encoding="utf-8"?>
<!-- Generator: Adobe Illustrator 16.0.0, SVG Export Plug-In . SVG Version: 6.00 Build 0)  -->
<!DOCTYPE svg PUBLIC "-//W3C//DTD SVG 1.1//EN" "http://www.w3.org/Graphics/SVG/1.1/DTD/svg11.dtd">
<svg version="1.1" id="Capa_1" xmlns="http://www.w3.org/2000/svg" xmlns:xlink="http://www.w3.org/1999/xlink" x="0px" y="0px"
	 width="200px" height="400px" viewBox="0 0 200 400" style="enable-background:new 0 0 200 400;" xml:space="preserve">
<style type="text/css">
<![CDATA[
	.st0{fill-rule:evenodd;clip-rule:evenodd;}
	.st1{fill-rule:evenodd;clip-rule:evenodd;fill:none;stroke:#FFFFFF;stroke-miterlimit:3;}
	.st2{fill-rule:evenodd;clip-rule:evenodd;fill:#FFFFFF;}
	.st3{fill-rule:evenodd;clip-rule:evenodd;fill:#666666;}
]]>
</style>
<g>
	<path class="st0" d="M98.8,65.2L38.7,168.85h123.75l35.2,14H0L98.8,0.95V65.2z M98.8,333.6v64.25L0,215.95h197.65l-35.2,14H38.7
		L98.8,333.6z"/>
	<path class="st2" d="M162.45,168.85L98.8,65.2V0.95l98.851,181.9L162.45,168.85z M197.65,215.95L98.8,397.85V333.6l63.65-103.649
		L197.65,215.95z"/>
	<path class="st3" d="M162.45,168.85H38.7L98.8,65.2L162.45,168.85z M162.45,229.95L98.8,333.6L38.7,229.95H162.45z"/>
	<path class="st1" d="M162.45,168.85l35.2,14 M98.8,0.95V65.2 M162.45,229.95l35.2-14 M98.8,397.85V333.6"/>
</g>
</svg>
