<?xml version="1.0" encoding="utf-8"?>
<!-- Generator: Adobe Illustrator 16.0.0, SVG Export Plug-In . SVG Version: 6.00 Build 0)  -->
<!DOCTYPE svg PUBLIC "-//W3C//DTD SVG 1.1//EN" "http://www.w3.org/Graphics/SVG/1.1/DTD/svg11.dtd">
<svg version="1.1" id="Capa_2" xmlns="http://www.w3.org/2000/svg" xmlns:xlink="http://www.w3.org/1999/xlink" x="0px" y="0px"
	 width="200px" height="450px" viewBox="0 0 200 450" style="enable-background:new 0 0 200 450;" xml:space="preserve">
<style type="text/css">
<![CDATA[
	.st0{fill-rule:evenodd;clip-rule:evenodd;fill:#FFFFFF;}
]]>
</style>
<path class="st0" d="M178.55,82.575l0.025,0.025c1.455,1.463,2.181,3.23,2.175,5.3v25c0.006,2.069-0.72,3.836-2.175,5.3
	l-0.025,0.025c-1.464,1.456-3.23,2.18-5.3,2.175H26.15c-2.07,0.006-3.836-0.719-5.3-2.175l-0.025-0.025
	c-1.457-1.464-2.182-3.23-2.175-5.3v-25c-0.006-2.07,0.719-3.836,2.175-5.3l0.025-0.025c1.463-1.457,3.23-2.182,5.3-2.175h147.1
	C175.319,80.394,177.086,81.119,178.55,82.575z M119.7,275.65v53.55h53.55c2.069-0.007,3.836,0.719,5.3,2.175l0.025,0.025
	c1.455,1.463,2.181,3.229,2.175,5.3v25c0.006,2.069-0.72,3.836-2.175,5.3l-0.025,0.025c-1.464,1.455-3.23,2.18-5.3,2.175H119.7
	v53.55c0.005,2.069-0.72,3.836-2.175,5.3l-0.025,0.025c-1.464,1.455-3.23,2.181-5.3,2.175h-25c-2.07,0.006-3.836-0.72-5.3-2.175
	l-0.025-0.025c-1.457-1.464-2.182-3.23-2.175-5.3V369.2H26.15c-2.07,0.006-3.836-0.72-5.3-2.175L20.825,367
	c-1.457-1.464-2.182-3.23-2.175-5.3v-25c-0.006-2.07,0.719-3.837,2.175-5.3l0.025-0.025c1.463-1.456,3.23-2.182,5.3-2.175H79.7
	v-53.55c-0.007-2.07,0.718-3.837,2.175-5.301l0.025-0.024c1.463-1.457,3.23-2.182,5.3-2.175h25c2.069-0.007,3.836,0.718,5.3,2.175
	l0.025,0.024C118.98,271.813,119.706,273.58,119.7,275.65z"/>
</svg>
