<?xml version="1.0" encoding="utf-8"?>
<!-- Generator: Adobe Illustrator 16.0.0, SVG Export Plug-In . SVG Version: 6.00 Build 0)  -->
<!DOCTYPE svg PUBLIC "-//W3C//DTD SVG 1.1//EN" "http://www.w3.org/Graphics/SVG/1.1/DTD/svg11.dtd">
<svg version="1.1" id="Capa_1" xmlns="http://www.w3.org/2000/svg" xmlns:xlink="http://www.w3.org/1999/xlink" x="0px" y="0px"
	 width="200px" height="450px" viewBox="0 0 200 450" style="enable-background:new 0 0 200 450;" xml:space="preserve">
<style type="text/css">
<![CDATA[
	.st0{fill-rule:evenodd;clip-rule:evenodd;fill:#FFFFFF;}
]]>
</style>
<path class="st0" d="M117.5,270.325c-1.464-1.457-3.23-2.182-5.3-2.175h-25c-2.07-0.007-3.837,0.718-5.3,2.175l-0.025,0.024
	c-1.457,1.464-2.182,3.23-2.175,5.301v53.55H26.15c-2.07-0.007-3.836,0.719-5.3,2.175l-0.025,0.025
	c-1.457,1.463-2.182,3.229-2.175,5.3v25c-0.006,2.069,0.719,3.836,2.175,5.3l0.025,0.025c1.463,1.455,3.23,2.181,5.3,2.175H79.7
	v53.55c-0.007,2.069,0.718,3.836,2.175,5.3l0.025,0.025c1.464,1.455,3.23,2.181,5.3,2.175h25c2.069,0.006,3.836-0.72,5.3-2.175
	l0.025-0.025c1.455-1.464,2.18-3.23,2.175-5.3V369.2h53.55c2.069,0.005,3.836-0.72,5.3-2.175l0.025-0.025
	c1.455-1.464,2.181-3.23,2.175-5.3v-25c0.006-2.07-0.72-3.837-2.175-5.3l-0.025-0.025c-1.464-1.456-3.23-2.182-5.3-2.175H119.7
	v-53.55c0.006-2.07-0.72-3.837-2.175-5.301L117.5,270.325z M170.7,29.35c16.408,16.408,25.925,35.65,28.55,57.725
	c0.267,2.117,0.4,48.091,0.4,137.925c0,89.833-0.134,135.809-0.4,137.925c-2.625,22.108-12.142,41.367-28.55,57.775
	C151.167,440.233,127.6,450,100,450c-27.6,0-51.167-9.767-70.7-29.3c-18.923-18.923-28.681-41.632-29.275-68.125V97.425
	C0.619,70.964,10.377,48.273,29.3,29.35C48.833,9.783,72.4,0,100,0C127.6,0,151.167,9.783,170.7,29.35z M180.75,87.9
	c0.006-2.07-0.72-3.836-2.175-5.3l-0.025-0.025c-1.464-1.457-3.23-2.182-5.3-2.175H26.15c-2.07-0.006-3.836,0.719-5.3,2.175
	L20.825,82.6c-1.457,1.463-2.182,3.23-2.175,5.3v25c-0.006,2.07,0.719,3.836,2.175,5.3l0.025,0.025
	c1.463,1.456,3.23,2.181,5.3,2.175h147.1c2.069,0.005,3.836-0.719,5.3-2.175l0.025-0.025c1.455-1.464,2.181-3.231,2.175-5.3V87.9z"
	/>
</svg>
