<?xml version="1.0" encoding="utf-8"?>
<!-- Generator: Adobe Illustrator 16.0.0, SVG Export Plug-In . SVG Version: 6.00 Build 0)  -->
<!DOCTYPE svg PUBLIC "-//W3C//DTD SVG 1.1//EN" "http://www.w3.org/Graphics/SVG/1.1/DTD/svg11.dtd">
<svg version="1.1" id="Capa_1" xmlns="http://www.w3.org/2000/svg" xmlns:xlink="http://www.w3.org/1999/xlink" x="0px" y="0px"
	 width="550px" height="400px" viewBox="50 50 450 350" style="enable-background:new 0 0 550 400;" xml:space="preserve">

<symbol  id="P01" viewBox="0 -23.05 25.5 23.05">
	<path class="provincia" d="M22.7-19.05v-1.7l-1.15-2.3l-8.4,2.35l-1.45,3.25c-0.034,0.034-0.05,0.067-0.05,0.1l-0.4,0.45
		c-0.067,0.066-0.117,0.1-0.15,0.1L0-10.2l0.45,0.65H6.5c0.1,0,0.2,0.033,0.3,0.1C6.9-9.383,6.967-9.3,7-9.2l0.6,1.8
		c0,0.1,0,0.2,0,0.3C7.567-7,7.5-6.917,7.4-6.85L4.2-4.4L3.35,0l3.4-0.8l1.1-3.1c0-0.167,0.133-0.35,0.4-0.55H8.3
		C8.367-4.483,8.467-4.533,8.6-4.6c0.033,0,0.066,0,0.1,0l8.45-1.25l8.35-4.35l-2.7-8.45c-0.033-0.033-0.05-0.067-0.05-0.1
		L22.7-19.05z M11.05-11.55l-0.5-2.65l0.25-1l8.35-5.1l1.35,1.25l-2.8,7.5H11.05z"/>
</symbol>
<symbol  id="P02" viewBox="0 -48.7 51.25 48.7">
	<path class="provincia" d="M40.95-10.6c-0.167-0.233-0.217-0.483-0.15-0.75c0.034-0.233,0.15-0.467,0.35-0.7l4.45-5.7
		c0.1-0.167,0.283-0.3,0.55-0.4l0.05-0.05c0.167-0.066,0.35-0.1,0.55-0.1h4.5l-0.05-3.2l-0.75-2.8l-3.3,3.05
		c-0.233,0.233-0.517,0.383-0.85,0.45c-0.333,0.066-0.65-0.017-0.95-0.25l-9.6-5.7l0.05,0.05c-0.2-0.1-0.367-0.267-0.5-0.5
		c-0.2-0.167-0.3-0.4-0.3-0.7l-0.95-9.15l-2.8-1.3l-1.35,1.7c-0.267,0.333-0.55,0.517-0.85,0.55c-0.333,0.1-0.633,0.067-0.9-0.1
		L16-41.4c-0.067-0.033-0.133-0.083-0.2-0.15l-5.1-7.15l-2.4,0.8l1.15,0.7c0.3,0.233,0.5,0.5,0.6,0.8c0.067,0.3,0.067,0.6,0,0.9
		v0.05L6.25-32.9v-0.05c-0.067,0.2-0.167,0.383-0.3,0.55C5.783-32.2,5.6-32.067,5.4-32H5.35L1.4-30.35l2.1,5.9c0,0.1,0,0.184,0,0.25
		L0-2.8l7.35,1.35L12.05-6c0.1-0.1,0.217-0.183,0.35-0.25c0.067-0.033,0.133-0.05,0.2-0.05c0.066,0,0.15,0,0.25,0
		c0.033,0,0.066,0,0.1,0L28.3-3.9c0.067,0,0.167,0.033,0.3,0.1L35.3,0c0.034-0.033,0.1-0.083,0.2-0.15h0.05l8.1-3.45L40.95-10.6z"/>
</symbol>
<symbol  id="P03" viewBox="0 -36 36 36">
	<path class="provincia" d="M29.45,0l4.5-1L36-3.9L14.85-19.45c-0.033,0-0.05-0.017-0.05-0.05c-0.1-0.1-0.183-0.217-0.25-0.35L7.65-36
		l-5.6,6.95L0-19.45L4.05-4.2l8.35-2.7h0.05c0.267-0.067,0.517-0.033,0.75,0.1L29.45,0z"/>
</symbol>
<symbol  id="P04" viewBox="0 -42.55 41.8 42.55">
	<path class="provincia" d="M30.7-6.95c0.1-0.4,0.233-0.633,0.4-0.7l10.7-10.9L34.9-33.4l-7-8.45l-3,4.55v0.05
		c-0.167,0.333-0.467,0.5-0.9,0.5h-6.3c-0.1,0-0.184-0.033-0.25-0.1l-0.35-0.2c-0.033,0-0.067-0.017-0.1-0.05l-5.05-5.45L0-40.55
		l7.65,17.4l4-1.35c0.133-0.133,0.483-0.067,1.05,0.2c0.066,0.033,0.133,0.083,0.2,0.15l8,12.35c0.02,0.058,0.036,0.116,0.05,0.175
		L27.45,0h4.25l-1.05-6.2C30.55-6.3,30.567-6.55,30.7-6.95z"/>
</symbol>
<symbol  id="P05" viewBox="0 -37.4 40.8 37.4">
	<path class="provincia" d="M16.15-10.75c0.033,0.067,0.067,0.133,0.1,0.2c0.067,0.167,0.1,0.316,0.1,0.45V0L28.7-1.75l12.1-15.8L30.4-33
		l-2.05,1.85c-0.067,0.066-0.117,0.1-0.15,0.1C28.133-31.017,28.067-31,28-31l-1.4-0.1c-0.167,0-0.283-0.05-0.35-0.15l-4.8-5.1
		L10-37.4L0-30.35L5.35-26c0.033,0.033,0.066,0.083,0.1,0.15v0.05c0.066,0.066,0.117,0.133,0.15,0.2c0.033,0.167,0.05,0.3,0.05,0.4
		v4.55l10.4,9.75C16.083-10.833,16.117-10.783,16.15-10.75z"/>
</symbol>
<symbol  id="P06" viewBox="0 -52.35 75.75 52.35">
	<path class="provincia" d="M69.4-1.6c0.033-0.033,0.083-0.066,0.15-0.1h0.05c0.367-0.2,0.633-0.267,0.8-0.2l5.35,0.8L74.2-2.95
		c-0.067-0.033-0.1-0.083-0.1-0.15l-7.85-21.55L49.6-34.9c-0.1-0.033-0.167-0.1-0.2-0.2l-0.45-1.1c-0.067-0.1-0.083-0.2-0.05-0.3
		l1.55-6.75l-18.05-9.1L10.55-44l0.05-0.05c-0.167,0.133-1.583,0.517-4.25,1.15L0-35.3l1.2,11.2l9.35,11.9
		c0.067,0.1,0.1,0.2,0.1,0.3s-0.033,0.2-0.1,0.3L4.1-2.75L14.35,0v-6.2c-0.033-0.167,0.05-0.35,0.25-0.55
		c0.167-0.233,0.316-0.367,0.45-0.4l0.1-0.05l23.4-5.45c0.1,0,0.2,0,0.3,0L69.4-1.6z"/>
</symbol>
<symbol  id="P07" viewBox="-0.017 -58 88.733 58">
	<path class="provincia" d="M87.5-8.8c-0.067-0.034-0.15-0.05-0.25-0.05S87.067-8.833,87-8.8L79.95-5l-3.7-1.1
		c-0.133,0-0.25,0.017-0.35,0.05c-0.1,0.033-0.183,0.1-0.25,0.2L73.8-2.3c-0.066,0.1-0.083,0.2-0.05,0.3
		c0,0.133,0.05,0.233,0.15,0.3c0.067,0.067,0.15,0.117,0.25,0.15l10,1.55c0.1,0,0.2-0.017,0.3-0.05c0.066-0.034,0.133-0.1,0.2-0.2
		l4-7.25c0.067-0.1,0.083-0.217,0.05-0.35c-0.034-0.133-0.1-0.233-0.2-0.3L87.5-8.8z M64.1-13.6c0.066-0.066,0.117-0.15,0.15-0.25
		c0-0.066-0.017-0.15-0.05-0.25l-3.7-8.4v-4.9c0-0.067-0.017-0.15-0.05-0.25c-0.034-0.067-0.083-0.117-0.15-0.15l-5.95-4.75
		c-0.1-0.034-0.184-0.067-0.25-0.1c-0.133,0-0.233,0.033-0.3,0.1c-0.1,0.033-0.167,0.1-0.2,0.2L51.85-29H44.9
		c-0.133,0-0.25,0.033-0.35,0.1c-0.1,0.1-0.15,0.2-0.15,0.3l-1.1,5.3l-2.85,1.35l-3.85-4.4c-0.1-0.1-0.217-0.15-0.35-0.15
		S36-26.467,35.9-26.4l-3.85,3.3c-0.1,0.067-0.15,0.15-0.15,0.25c-0.033,0.1-0.033,0.184,0,0.25c0,0.1,0.05,0.184,0.15,0.25L42-13.2
		c0,0.034,0.017,0.05,0.05,0.05l8.75,5.5c0.067,0.066,0.167,0.1,0.3,0.1c0.1,0,0.183-0.034,0.25-0.1
		c0.066-0.067,0.133-0.15,0.2-0.25l1.65-4.55l3.6-1.6h0.05l3.7,1.5c0.1,0.066,0.217,0.083,0.35,0.05l3-0.95
		C63.967-13.45,64.033-13.5,64.1-13.6z M1.95-44.05c0,0.066,0.033,0.133,0.1,0.2c0.067,0.067,0.15,0.1,0.25,0.1l8.1,2.25
		c0.1,0.067,0.217,0.05,0.35-0.05c0.1-0.034,0.183-0.117,0.25-0.25l0.85-2.85c0-0.1,0-0.2,0-0.3c-0.033-0.066-0.083-0.133-0.15-0.2
		L5.6-51.4c-0.1-0.067-0.184-0.117-0.25-0.15c-0.1,0-0.2,0.017-0.3,0.05L0.3-49.65c-0.1,0.033-0.167,0.083-0.2,0.15
		C0.033-49.4,0-49.3,0-49.2c-0.033,0.1-0.017,0.184,0.05,0.25l0.9,1.6L1.95-44.05z M9.2-55.35l-3-2.5C6.067-57.95,5.95-58,5.85-58
		c-0.167,0.033-0.283,0.083-0.35,0.15c-0.1,0.1-0.15,0.217-0.15,0.35v1.15c0,0.067,0.017,0.133,0.05,0.2
		c0.033,0.1,0.083,0.167,0.15,0.2l1.9,1.4c0.066,0.066,0.167,0.1,0.3,0.1h1.1c0.1,0,0.2-0.033,0.3-0.1
		c0.067-0.067,0.133-0.15,0.2-0.25c0-0.067,0-0.167,0-0.3C9.317-55.167,9.267-55.25,9.2-55.35z"/>
</symbol>
<symbol  id="P08" viewBox="0 -39.55 36.5 39.55">
	<path class="provincia" d="M28.45-7.2l-1.25-4.3l-4.5-1.3c-0.2,0.1-0.417-0.1-0.65-0.6c-0.233-0.533-0.233-0.85,0-0.95l1.65-2.95
		c0-0.067,0.033-0.117,0.1-0.15l0.35-0.25c0.067-0.066,0.15-0.1,0.25-0.1l11.45-1.4l0.65-2.05L23.3-29.2
		c-0.1-0.033-0.167-0.1-0.2-0.2l-3.2-6.35l-12.5-3.8L0-26.85v5.45l4.25,0.95c0.033,0,0.083,0.017,0.15,0.05
		c0.434,0.233,0.65,0.483,0.65,0.75v0.05L7.6-2.15L10.3,0l4-6l0.05-0.05c0.367-0.4,0.733-0.517,1.1-0.35H15.4l5.4,1.65L28.45-7.2z"
		/>
</symbol>
<symbol  id="P09" viewBox="0 -61.35 45.75 61.35">
	<path class="provincia" d="M45.75-17.25l-5.6,3.4l0.05,0.95l4.1-0.4L45.75-17.25z M28.9-5.1c0-0.066,0.033-0.117,0.1-0.15l0.35-0.6
		c0-0.066,0.033-0.117,0.1-0.15l0.2-0.15H27.2c-0.1,0-0.184-0.033-0.25-0.1l-0.8-0.45C26.083-6.733,26.033-6.783,26-6.85l-1.8-2.6
		c-0.034-0.033-0.067-0.083-0.1-0.15c0-0.066,0-0.133,0-0.2l0.3-1.4c0.033-0.066,0.067-0.133,0.1-0.2
		c0.033-0.067,0.083-0.117,0.15-0.15L34-17.1l-4.3-1.05c-0.133,0-0.217-0.05-0.25-0.15c-0.1-0.067-0.15-0.167-0.15-0.3l-1.1-16.2
		c0-0.1,0.033-0.2,0.1-0.3l6-7.75l-4.4-6.6l-2.55,3.1l0.05-0.05c-0.2,0.267-0.433,0.4-0.7,0.4c-0.2,0.033-0.367,0.017-0.5-0.05
		c-0.233-0.067-0.383-0.2-0.45-0.4c-0.033-0.033-0.05-0.066-0.05-0.1l-6.6-11.5l-13.05-3.3L5.1-52.4l3.05,6.85
		c0,0.033,0.017,0.05,0.05,0.05c0.033,0.167,0.05,0.3,0.05,0.4c0,0.233-0.067,0.417-0.2,0.55L1.9-37.6L0-19.45l3.75,4.6l0.85-0.8
		c0.066-0.067,0.167-0.117,0.3-0.15L6.05-16c0.1,0,0.2,0.017,0.3,0.05l5.2,2.55c0.067,0.033,0.117,0.083,0.15,0.15
		c0.033,0.067,0.066,0.117,0.1,0.15l0.35,1.5c0,0.1,0,0.184,0,0.25c-0.033,0.067-0.066,0.133-0.1,0.2l-3.2,4.2L16.65,0l5.1-1.35
		c0.033,0,0.067,0,0.1,0c0.1,0,0.183,0,0.25,0h0.25c0.033,0,0.083,0,0.15,0L27.95,0L28.9-5.1z"/>
</symbol>
<symbol  id="P10" viewBox="0 -50.95 70.3 50.95">
	<path class="provincia" d="M45.95-8.4c0.1-0.033,0.2-0.033,0.3,0l4.25,1.7l10.2-7.15l-1.15-6.6c0-0.033,0-0.083,0-0.15l0.1-0.65
		c0-0.033,0.033-0.083,0.1-0.15L70.3-40.45l-29.2-10.5l-22,5.15v6.8c0,0.2-0.05,0.367-0.15,0.5c-0.133,0.2-0.267,0.333-0.4,0.4
		c-0.033,0-0.066,0-0.1,0c-0.2,0.1-0.4,0.1-0.6,0l-12.1-3.25L0-28.8h13.4c0.267,0,0.5,0.1,0.7,0.3c0.2,0.2,0.3,0.433,0.3,0.7v19.05
		L17.85-7c0.233-0.167,0.5-0.25,0.8-0.25H27c0.067,0,0.133,0,0.2,0L27.85-7c0.033,0.033,0.083,0.067,0.15,0.1L36.05,0l8.6-8.1
		c0.067-0.033,0.15-0.066,0.25-0.1L45.95-8.4z"/>
</symbol>
<symbol  id="P11" viewBox="0 -35.7 36.05 35.7">
	<path class="provincia" d="M36.05,0l-10.7-14.8c-0.033-0.034-0.05-0.067-0.05-0.1c-0.066-0.1-0.1-0.283-0.1-0.55c0-0.033,0-0.066,0-0.1
		c0.066-0.3,0.15-0.483,0.25-0.55l8.3-8.45l-7.9-11.15L10.3-27.75l-5.25,8.9L6.5-18c0.033,0.033,0.067,0.067,0.1,0.1
		c0.1,0.033,0.183,0.25,0.25,0.65c0.066,0.5,0.017,0.783-0.15,0.85L0-10.75l1.4,4.3l14.4,4.3L36.05,0z"/>
</symbol>
<symbol  id="P12" viewBox="0 -37.7 35.5 37.7">
	<path class="provincia" d="M27.95-1.35l7.55-7L17.05-37.7L3.5-35.9l-3.5,6l14.7,13.7c0.033,0.034,0.05,0.067,0.05,0.1
		c0.133,0.167,0.25,0.35,0.35,0.55v0.05c0.1,0.3,0.117,0.567,0.05,0.8L12.6-4.55L17.55,0L27.95-1.35z"/>
</symbol>
<symbol  id="P13" viewBox="0 -41.9 67.65 41.9">
	<path class="provincia" d="M59.3-3.6l4.75-5.15l3.6-21.75c-1.667-3.867-2.483-5.833-2.45-5.9L45-41.85L20.15-41.9L0-29.7L7.5-9.1
		c2.267,2.967,3.533,4.767,3.8,5.4l-0.05-0.35L14.75,0H25.4v-2.6l-2.15-3.7L23.2-6.35c-0.1-0.1-0.083-0.35,0.05-0.75
		c0-0.033,0-0.066,0-0.1c0.133-0.267,0.233-0.417,0.3-0.45c0.067-0.067,0.133-0.117,0.2-0.15c6.533-2.467,9.967-3.65,10.3-3.55
		L48.9-3.6H59.3z"/>
</symbol>
<symbol  id="P14" viewBox="0 -55.2 45.95 55.2">
	<path class="provincia" d="M41.35-47.8c-0.2-0.067-0.333-0.2-0.4-0.4l-3.3-7l-9.6,2.15L15.9-36.85l-0.05,0.05
		c-0.133,0.2-0.283,0.316-0.45,0.35c-0.233,0.1-0.45,0.083-0.65-0.05H14.7c-0.034,0-0.05-0.017-0.05-0.05l-7.05-2.7L0-19.85L3.6-18
		c0.066,0.067,0.133,0.133,0.2,0.2l0.55,1.1c0.033,0.133,0.05,0.25,0.05,0.35L2.8-9.5L18.3,0l20.3-12.3h0.05
		c0.033-0.034,0.067-0.05,0.1-0.05V-33.5c0-0.1,0.033-0.233,0.1-0.4c0-0.033,0-0.067,0-0.1l7.1-13.6h-4.1
		C41.65-47.6,41.483-47.667,41.35-47.8z"/>
</symbol>
<symbol  id="P15" viewBox="0 -39.35 40.85 39.35">
	<path class="provincia" d="M29.55-5.55L37.65,0l3.2-0.95l-5.7-10.65c-0.1-0.066-0.15-0.183-0.15-0.35L32.4-31l-19.95-4.6
		c-0.034,0-0.083,0-0.15,0c-0.033,0-0.066,0-0.1,0L10.35-36c-0.167-0.033-0.3-0.117-0.4-0.25l-4.85-3.1l1.95,5.9
		c0,0.034,0,0.083,0,0.15c0,0.066,0,0.133,0,0.2c0,0.2-0.066,0.383-0.2,0.55L0-23.75l10.9,10.1h15.8c0.2,0,0.4,0.05,0.6,0.15
		c0.2,0.167,0.333,0.35,0.4,0.55L29.55-5.55z"/>
</symbol>
<symbol  id="P16" viewBox="0 -52.2 54.65 52.2">
	<path class="provincia" d="M48.35-24.05V-24c0.1-0.3,0.267-0.55,0.5-0.75l0.05-0.05c0.233-0.133,0.5-0.2,0.8-0.2h4.95l-2.55-9.85
		l-3.15-1.5c-0.267-0.1-0.45-0.25-0.55-0.45c-0.133-0.167-0.217-0.35-0.25-0.55L46-45.65v0.05c-0.067-0.167-0.1-0.333-0.1-0.5
		l-6.45-3.7L24.6-52.2l-4.7,4.65c-0.066,0.066-0.133,0.1-0.2,0.1l-0.45,0.15c-0.067,0.033-0.15,0.05-0.25,0.05l-8.25-1.5L6.2-43.9
		l0.85,5.95c0,0.034,0,0.067,0,0.1c0.067,0.133-1.9,3.133-5.9,9L0-22.7h1.5c0.067,0,0.133,0.017,0.2,0.05
		c0.066,0.033,0.133,0.066,0.2,0.1l1,1.15c0.033,0.066,0.067,0.133,0.1,0.2c0,0.067,0,0.133,0,0.2l-0.2,1.15l7,2.95h0.05
		c0.1,0.066,0.2,0.15,0.3,0.25c0.167,0.167,0.25,0.316,0.25,0.45l1.4,8.6l17,7.6l7.05-8.15v-0.1c0-0.233,0.183-0.617,0.55-1.15
		c0.233-0.4,0.434-0.667,0.6-0.8l9.85-9.95L48.35-24.05z"/>
</symbol>
<symbol  id="P17" viewBox="0 -27.85 40.55 27.85">
	<path class="provincia" d="M40.55-4.45v-0.7l-3.8-2.5c-0.033,0-0.067-0.017-0.1-0.05c-0.066-0.033-0.15-0.167-0.25-0.4v-0.05
		c-0.167-0.367-0.167-0.617,0-0.75l3-10.15l-10.5-8.8l-0.65,1.95c-0.067,0.1-0.133,0.183-0.2,0.25L27.6-25.3
		c-0.067,0.066-0.15,0.1-0.25,0.1l-11.5,1.4L15-22.25l4,1.05c0.067,0.034,0.133,0.083,0.2,0.15l0.35,0.35
		c0.067,0.067,0.117,0.133,0.15,0.2l1.6,5.7c0.133,0.2,0.1,0.483-0.1,0.85c-0.034,0-0.05,0.017-0.05,0.05
		c-0.167,0.233-0.3,0.367-0.4,0.4c-0.033,0-0.067,0-0.1,0l-8.85,2.85c-0.2,0.1-0.4,0.1-0.6,0l-4.9-1.5L2.1-5.9
		C2.067-5.867,2.033-5.833,2-5.8L1.95-5.75L0-2.9l7.3-2.35C7.433-5.283,7.55-5.267,7.65-5.2l5.95,2.7l10.35-2.25
		c0.133-0.033,0.25-0.017,0.35,0.05L32.95,0L40.55-4.45z"/>
</symbol>
<symbol  id="P18" viewBox="0 -48.7 61.55 48.7">
	<path class="provincia" d="M55.4-18.2l-7.5-11.55l-4.05,1.4c-0.133,0.133-0.367,0.117-0.7-0.05c-0.367-0.133-0.566-0.283-0.6-0.45
		l-8.25-19L16.05-48.7l-12.9,7.6L0-32.3l3.3,6.8h5c0.1,0,0.233,0.017,0.4,0.05c0.033,0.034,0.083,0.05,0.15,0.05
		c0,0.033,0.017,0.05,0.05,0.05l13.05,7.95H36c0.133,0,0.283,0.033,0.45,0.1c0.066,0.033,0.133,0.066,0.2,0.1
		c0.033,0.034,0.083,0.067,0.15,0.1L51.7,0l5.8-1.9l4.05-4.6L55.4-18.2z"/>
</symbol>
<symbol  id="P19" viewBox="0 -41.5 54.05 41.5">
	<path class="provincia" d="M53.35-14.7l0.7-10.55l-6.85-5.1l-7.4,8.5l-0.05,0.05c-0.167,0.167-0.333,0.267-0.5,0.3
		c-0.233,0.1-0.467,0.067-0.7-0.1l0.05,0.05l-18.1-8.1c-0.133-0.067-0.25-0.15-0.35-0.25c-0.133-0.133-0.217-0.317-0.25-0.55
		l-1.4-8.5l-6.05-2.55l-1.55,9.2v0.1l-0.15,0.4c-0.033,0.066-0.067,0.117-0.1,0.15L0-16.55l3.7,6.45C3.733-10,3.75-9.9,3.75-9.8
		L3.6-8.65c0,0.1-0.033,0.183-0.1,0.25L0.1-4.45l8,4.35C8.133-0.067,8.167-0.033,8.2,0l12.6-1l9.1-8.6
		c0.067-0.033,0.15-0.066,0.25-0.1c0.1,0,0.184,0,0.25,0l11.5,3.8L53.35-14.7z"/>
</symbol>
<symbol  id="P20" viewBox="0 -16.2 22.85 16.2">
	<path class="provincia" d="M21.25,0l1.6-1.4l-9.1-11.2L7.8-16.2L0-12.1l5,10l7.3-1.3c0.034,0,0.067,0,0.1,0
		c0.133-0.033,0.283-0.033,0.45,0h0.05L21.25,0z"/>
</symbol>
<symbol  id="P21" viewBox="0 -48.5 37.55 48.5">
	<path class="provincia" d="M29.1-14.4c-0.033,0-0.067-0.033-0.1-0.1l-4.3-4.85c-0.034,0-0.067-0.033-0.1-0.1
		c-0.133-0.133-0.1-0.417,0.1-0.85c0.233-0.534,0.466-0.75,0.7-0.65H29V-48.5L13.2-34.25c-0.1,0.1-0.217,0.15-0.35,0.15H0v20.2
		L14.25,0C27.317-5,34.767-7.833,36.6-8.5l0.95-5.6H29.7c-0.1,0-0.184-0.033-0.25-0.1L29.1-14.4z"/>
</symbol>
<symbol  id="P22" viewBox="0 -55.85 46.15 55.85">
	<path class="provincia" d="M46.15-18.05L42.5-35l-7-8.9l-0.05-0.05c-0.167-0.167-0.233-0.517-0.2-1.05c0.067-0.567,0.217-0.917,0.45-1.05
		l2.25-1.85L34-51.65c-0.133-0.1-0.233-0.35-0.3-0.75v0.05c-0.2-0.467-0.233-0.767-0.1-0.9v0.05l0.85-2.1l-6.2-0.55L24.5-48.7
		c-0.033,0.067-0.083,0.133-0.15,0.2l-0.1,0.05L7.4-33.75v10.85c0,0.1-0.017,0.183-0.05,0.25c-1.2,2.533-2.417,5.1-3.65,7.7
		C1.433-10.083,0.2-7.7,0-7.8c0.1,0.066,0.167,0.133,0.2,0.2L3.9,0l4.9-2.05c0.067,0,0.133,0,0.2,0l5.95-0.05l8.8-5.5
		c0.067-0.033,0.133-0.05,0.2-0.05c0.1,0,0.183,0.017,0.25,0.05l6.15,2.55l12.9-1.45L46.15-18.05z"/>
</symbol>
<symbol  id="P23" viewBox="0 -39.95 52.35 39.95">
	<path class="provincia" d="M52.35-12.2l-2.5-1.6c-0.167-0.067-5.417-6.217-15.75-18.45H20.15c-0.233,0-0.417-0.067-0.55-0.2l-12.4-7.5
		L0-26.05V-5.5h24.75c0.033,0,0.083,0,0.15,0L45.2,0l3.9-1.45L52.35-12.2z"/>
</symbol>
<symbol  id="P24" viewBox="0 -41.95 62.1 41.95">
	<path class="provincia" d="M42.5-6.3L59.25,0l2.85-5.3L57.8-23l-2.85-9l-8.8-2.15c-0.267,0-0.467-0.083-0.6-0.25
		c-0.066-0.067-0.133-0.167-0.2-0.3l-3.05-7.25L6.55-31.7l1.35,1.8C7.967-29.833,8-29.75,8-29.65l0.1,1c0,0.1-0.017,0.183-0.05,0.25
		L5.1-22.15c-0.033,0.1-0.083,0.167-0.15,0.2l-0.85,0.6c-0.1,0.067-0.2,0.1-0.3,0.1L0-21.15v4.6l2.45,0.95
		c0.066,0.033,0.133,0.083,0.2,0.15l0.55,0.6c0.033,0.067,0.066,0.117,0.1,0.15l2.6,6.85L16-8.4c0.033,0,0.083,0,0.15,0l12.6,3.45
		l13.05-1.4c0.034,0,0.067,0,0.1,0l0.45,0.05C42.383-6.3,42.433-6.3,42.5-6.3z"/>
</symbol>
<symbol  id="P25" viewBox="0 -57.3 39.7 57.3">
	<path class="provincia" d="M25.85-4.9l1.9-8.1c0-0.1,0.05-0.183,0.15-0.25s0.217-0.1,0.35-0.1l8.65,0.6l2.8-4l-3.4-2.85
		c-0.1-0.066-0.167-0.167-0.2-0.3l-2.45-17.2L29.3-38c-0.133-0.033-0.233-0.1-0.3-0.2l-0.4-0.5c-0.067-0.1-0.1-0.2-0.1-0.3v-5.9
		l-9.05-4.85c-0.067-0.033-0.117-0.067-0.15-0.1l-4.55-4.45l-12.45-3l-1.15,2.8L1.1-54.15c-0.033,0.133-0.083,0.233-0.15,0.3
		c-0.034,0.033-0.067,0.067-0.1,0.1l-0.85,2l4.45,4.15v0.05c0.133,0.033,0.167,0.65,0.1,1.85c0,0.1-0.017,0.167-0.05,0.2
		c-0.033,0.067-0.067,0.117-0.1,0.15L1.9-43.3l6.35,8.1l0.05,0.05c0.067,0.167,0.15,0.333,0.25,0.5c0,0.033,0,0.066,0,0.1l3.8,17.6
		c0.033,0.233,0.033,0.45,0,0.65c-0.533,2.033-1.083,4.083-1.65,6.15c-0.967,3.467-1.6,5.566-1.9,6.3l0.05-0.1L8.75,0L25.85-4.9z"/>
</symbol>
<symbol  id="P26" viewBox="0 -23.75 37.55 23.75">
	<path class="provincia" d="M28.8-18.15c-0.033,0.1-0.083,0.183-0.15,0.25c-0.066,0.1-0.15,0.15-0.25,0.15l-9.25,1.2
		c-0.1,0-0.183-0.017-0.25-0.05c-0.066,0-0.133-0.033-0.2-0.1l-4.75-4.75h-8.6L0-14.6L0.95-1.15l4.7,1.1C5.683-0.017,5.733,0,5.8,0
		L7-2.7c0.033-0.066,0.067-0.133,0.1-0.2l0.65-0.6C7.817-3.533,7.9-3.567,8-3.6l19.95-5.55l9.6-7.05l-5-6.55
		c-0.066-0.067-0.1-0.15-0.1-0.25c0-0.033,0-0.067,0-0.1l-2.5-0.65L28.8-18.15z"/>
</symbol>
<symbol  id="P27" viewBox="0 -51.15 28.55 51.15">
	<path class="provincia" d="M21.1-10.85c-0.067-0.066-0.1-0.167-0.1-0.3l-0.05-1.1c0-0.067,0.033-0.15,0.1-0.25l5.7-10.15l-2.4-4.45
		c-0.033-0.033-0.05-0.1-0.05-0.2c0-0.067,0.017-0.133,0.05-0.2l0.55-1.4c0-0.067,0.033-0.117,0.1-0.15
		c0.067-0.067,0.133-0.117,0.2-0.15l3.35-1.15l-2.25-5.9l-2.75-1.1c-0.133-0.033-0.216-0.1-0.25-0.2l-0.6-0.9
		c-0.067-0.066-0.1-0.15-0.1-0.25v-7.1c0-0.1,0.033-0.2,0.1-0.3l-3.55-5.05L15.4-47.6c-0.167,0.167-0.316,0.25-0.45,0.25
		c-0.233,0.067-0.417,0.05-0.55-0.05l-5.5-1.5L2-42l1.9,4.7c0,0.066,0,0.133,0,0.2c0,0.1,0,0.184,0,0.25
		c0,0.133-0.033,0.267-0.1,0.4v0.05L0-30.15L2.6-10.9L8.45,0l8.2-1.35l2.2-5.6v0.05c0.033-0.2,0.167-0.383,0.4-0.55h0.05
		c0.1-0.066,0.25-0.1,0.45-0.1h3.9L21.1-10.85z"/>
</symbol>
<symbol  id="P28" viewBox="0 -43.65 41.2 43.65">
	<path class="provincia" d="M29.05,0L32-3.4l-3.6-6.35c-0.066-0.1-0.1-0.2-0.1-0.3l0.05-1.1c0-0.067,0.033-0.15,0.1-0.25L39.5-27.05
		l1.7-10.2h-6.7l-0.6-0.2h-0.05l-11.9-6.2l6.2,5.2L28.3-38L28-36.3c-0.133,0.267-0.25,0.4-0.35,0.4L10.35-30
		c-0.033,0.033-0.083,0.05-0.15,0.05H9.55c-0.066,0-0.117-0.017-0.15-0.05l-9.15-3.15L0-32.9l10.95,16.35L29.05,0z"/>
</symbol>
<symbol  id="P29" viewBox="0 -32.6 48.85 32.6">
	<path class="provincia" d="M34.7-2.15l3.15-9v0.05c0.033-0.2,0.167-0.383,0.4-0.55l10.6-6.2l-17-0.4c-0.067,0-0.133-0.017-0.2-0.05
		c-0.066-0.034-0.117-0.083-0.15-0.15l-7.4-8.15l-16.25-6L0-24.55l11.4,15.8L24.9,0L34.7-2.15z"/>
</symbol>
<symbol  id="P30" viewBox="0 -49.4 44.55 49.4">
	<path class="provincia" d="M41.85-36.05c-0.067-0.1-0.1-0.25-0.1-0.45s0.067-0.383,0.2-0.55l2.6-3.45L29.9-42c-0.2,0-0.367-0.067-0.5-0.2
		l-9.6-7.2L9.75-39.1l1.3,7.2c0.034,0.3,0.017,0.583-0.05,0.85c-0.033,0.033-0.05,0.066-0.05,0.1c-0.167,0.233-0.35,0.417-0.55,0.55
		c-0.267,0.2-0.55,0.3-0.85,0.3H3.4L0-26.15l4.7,6.75L15-15.15l1.4-1.8c0.2-0.267,0.483-0.45,0.85-0.55h0.05
		c0.267-0.033,0.567,0.017,0.9,0.15h0.05l4.65,2.2c0.167,0.1,0.333,0.233,0.5,0.4c0.033,0.033,0.067,0.067,0.1,0.1
		c0.133,0.233,0.2,0.467,0.2,0.7v0.05l1,9.2L32.65,0l3.65-3.4l-2.6-9.95v0.05c-0.133-0.267-0.15-0.517-0.05-0.75l2.2-10.25
		c0.033-0.267,0.15-0.5,0.35-0.7h-0.05l6.7-8.3h0.05c0.033-0.034,0.067-0.067,0.1-0.1L41.85-36.05z"/>
</symbol>
<symbol  id="P31" viewBox="0 -49.85 41.8 49.85">
	<path class="provincia" d="M24.5-9.35l0.05-0.05l4.25-1.7c0.067,0,0.133,0,0.2,0s0.133,0.017,0.2,0.05c0.667,0.433,0.966,0.75,0.9,0.95
		v1.95l11.7-4.8l-3.35-6.9l-8.3-7.05C30.05-26.933,30-27,30-27.1l-4.45-15.15c-0.033-0.067-0.05-0.15-0.05-0.25
		c0.033-0.067,0.067-0.133,0.1-0.2l2.3-3.15l-2.6-4l-9.35,2.95l4.75,6.25c0.066,0.066,0.1,0.15,0.1,0.25s-0.017,0.183-0.05,0.25
		c-0.033,0.066-0.083,0.133-0.15,0.2L8.55-31.1c-0.066,0.033-0.117,0.05-0.15,0.05L0-28.7l1.05,2.1
		c0.034,0.067,0.05,0.117,0.05,0.15L1.2-26c0,0.033,0,0.067,0,0.1v1.75l2.75,8.4l5.9,3.6c0.033,0.033,0.083,0.066,0.15,0.1
		c3.4,4.133,5.967,7.216,7.7,9.25c0.833,1,1.483,1.75,1.95,2.25c0.167,0.233,0.3,0.417,0.4,0.55l5.75-1.5l-1.85-6.6
		c-0.167-0.167-0.133-0.417,0.1-0.75C24.183-9.15,24.333-9.317,24.5-9.35z"/>
</symbol>
<symbol  id="P32" viewBox="0 -25.95 42.2 25.95">
	<path class="provincia" d="M35.9-4.1l4.15-0.15l2.15-4.6l-7-8.95c-0.034-0.034-0.05-0.083-0.05-0.15l-0.2-0.6
		c-0.034-0.034-0.05-0.083-0.05-0.15v-2.25h-2.3c-0.133,0-0.267-0.033-0.4-0.1c-0.167-0.1-0.3-0.233-0.4-0.4l-3.6-4.35l-15.75,3.05
		l0.05-0.05c-0.233,0.1-0.467,0.066-0.7-0.1l0.05,0.05l-6.55-3.1L3.35-23l4.25,3.95V-19c0.2,0.2,0.3,0.433,0.3,0.7
		c0,0.333-0.066,0.55-0.2,0.65l-4.65,5.2L0-3.7L4.85,0H12l7.5-7.5c0.133-0.133,0.283-0.233,0.45-0.3c0.033,0,0.083,0,0.15,0
		c0.066,0,0.15,0,0.25,0c0.033,0,0.083,0,0.15,0L26-6.2l4.15-3.95c0.133-0.133,0.283-0.233,0.45-0.3c0.2-0.066,0.4-0.066,0.6,0
		c0.066,0.034,0.133,0.083,0.2,0.15c0.067,0.066,0.133,0.133,0.2,0.2c0.033,0,0.05,0.017,0.05,0.05L35.9-4.1z"/>
</symbol>
<symbol  id="P33" viewBox="0 -21.05 69.1 21.05">
	<path class="provincia" d="M68.2-9.65l-7.25-2.7c-0.067,0-0.117-0.017-0.15-0.05v-0.05h-0.05L43.3-19l-13,1.45c-0.033,0-0.066,0-0.1,0
		l-0.35-0.05c-0.033,0-0.05-0.017-0.05-0.05l-12.65-3.4L6.75-20.4l-3,1l1.9,3.65c0.033,0.1,0.05,0.183,0.05,0.25v0.95
		c0,0.1-0.017,0.183-0.05,0.25L0-4.35L3.35,0h34.1L69.1-7.65L68.2-9.65z"/>
</symbol>
<symbol  id="P34" viewBox="0 -45.9 27.1 45.9">
	<path class="provincia" d="M6.7-0.4l0.7-0.55c0.033-0.033,0.1-0.066,0.2-0.1c0.033,0,0.1,0,0.2,0L15,0l8.3-8.15l-4.2-5.1v-0.05
		c-0.233-0.2-0.3-0.467-0.2-0.8L18.85-14l2-18.85c0-0.2,0.1-0.4,0.3-0.6l5.95-6.65l-2.65-5.8L0-40.05v13.85l2.95,9.4v0.05L6.7-0.4z"
		/>
</symbol>
<symbol  id="P35" viewBox="0.025 -56.9 80.6 56.9">
	<path class="provincia" d="M80.4-0.95c0.1-0.033,0.167-0.117,0.2-0.25s0.033-0.25,0-0.35l-1.65-3.5V-8.6c0-0.066-0.017-0.15-0.05-0.25
		C78.833-8.917,78.767-8.967,78.7-9l-10.05-5.7c-0.1-0.033-0.183-0.05-0.25-0.05h-2.6c-0.1,0-0.2,0.033-0.3,0.1
		c-0.1,0.066-0.167,0.167-0.2,0.3c-0.033,0.1-0.017,0.2,0.05,0.3l1.35,2.8v3.6c0,0.1,0.033,0.183,0.1,0.25
		c0.034,0.1,0.1,0.167,0.2,0.2l6.8,3.55C73.867-3.617,73.933-3.6,74-3.6s0.133-0.017,0.2-0.05l2.5-0.95l1.6,4.25
		c0.034,0.1,0.083,0.184,0.15,0.25c0.066,0.067,0.167,0.1,0.3,0.1c0.1,0,0.2-0.033,0.3-0.1L80.4-0.95z M65.45-18.8
		c0.1-0.034,0.183-0.083,0.25-0.15c0.066-0.066,0.117-0.167,0.15-0.3l0.95-5.5c0-0.133-0.033-0.25-0.1-0.35l-1.8-2.7v-0.05l1.5-3.2
		c0.033-0.034,0.05-0.1,0.05-0.2c0-0.067-0.017-0.133-0.05-0.2l-2.55-5.95c-0.033-0.067-0.067-0.117-0.1-0.15
		c-0.067-0.034-0.133-0.067-0.2-0.1l-8.1-2.1L50.7-45.1c-0.067-0.1-0.15-0.167-0.25-0.2c-0.133,0-0.25,0.017-0.35,0.05l-3.7,1.85
		c-0.133,0.033-0.217,0.1-0.25,0.2c-0.033,0.133-0.033,0.25,0,0.35c0,0.133,0.05,0.233,0.15,0.3c0.1,0.066,0.2,0.1,0.3,0.1h2.2
		l6.1,4.6v3.35c0,0.1,0.033,0.183,0.1,0.25l3.05,4.75l3.35,8.65c0.033,0.133,0.117,0.217,0.25,0.25l3.5,1.75
		C65.217-18.817,65.317-18.8,65.45-18.8z M5-40.45l8.65-1.65c0.1,0,0.2-0.066,0.3-0.2c0.066-0.1,0.1-0.217,0.1-0.35l-0.25-1.8
		l1.85-2.15c0.033-0.066,0.067-0.133,0.1-0.2c0.033-0.067,0.033-0.15,0-0.25l-1.3-5.55c-0.034-0.133-0.1-0.233-0.2-0.3L8.3-56.85
		C8.2-56.883,8.1-56.9,8-56.9s-0.183,0.017-0.25,0.05L1.5-52.9c-0.1,0.066-0.167,0.167-0.2,0.3l-1.25,4.85
		c-0.033,0.1-0.033,0.2,0,0.3c0.034,0.1,0.083,0.184,0.15,0.25l4.2,3.35v2.9c0,0.1,0.033,0.184,0.1,0.25
		c0.033,0.1,0.1,0.167,0.2,0.2C4.8-40.467,4.9-40.45,5-40.45z"/>
</symbol>
<symbol  id="P36" viewBox="0 -33.8 28.6 33.8">
	<path class="provincia" d="M28.6-5.55l-1.7-4.2h-7.25c-0.2,0-0.383-0.067-0.55-0.2h-0.05l-5.6-4.3c-0.233-0.133-0.35-0.3-0.35-0.5
		c-0.133-0.2-0.133-0.433,0-0.7l3.05-8.8L0-33.8v6.3l6.75,6.25c0.033,0.067,0.067,0.117,0.1,0.15c0.033,0.067,0.066,0.133,0.1,0.2
		c0.066,0.167,0.1,0.316,0.1,0.45v2.1c0,0.3-0.083,0.517-0.25,0.65c-0.167,0.167-0.333,0.267-0.5,0.3
		c-0.033,0.033-0.083,0.05-0.15,0.05c-0.233,0-0.433-0.066-0.6-0.2L1.8-19.7v6.1l3.75,9L25.25,0L28.6-5.55z"/>
</symbol>
<symbol  id="P37" viewBox="0 -37 48.05 37">
	<path class="provincia" d="M45.2-5.3c0.033,0,0.066,0,0.1,0h0.05l2.7-0.45v-10l-10.4-9.75c-0.066-0.067-0.133-0.167-0.2-0.3
		c-0.067-0.133-0.1-0.267-0.1-0.4v-4.6l-5.95-4.8c-0.066,0-0.15,0-0.25,0c-0.4,0.033-0.65,0-0.75-0.1L27.05-37l-8.95,8.3
		c-0.1,0.1-0.2,0.15-0.3,0.15l-1.35,0.05c-0.133,0-0.25-0.05-0.35-0.15l-8.6-7.4H0.55l2.1,7.25c0,0.066,0,0.117,0,0.15
		s0,0.083,0,0.15v12.2c0,0.066,0,0.117,0,0.15c0,0.066,0,0.117,0,0.15L0-9.35h1.45C1.683-9.35,1.9-9.3,2.1-9.2
		c0,0.034,0.017,0.05,0.05,0.05l11,9.15l13.5-6c0.033,0,0.05-0.017,0.05-0.05c0.167-0.034,0.316-0.05,0.45-0.05
		c0.067,0,0.15,0.017,0.25,0.05C27.433-6.017,27.483-6,27.55-6c0.067,0.033,0.133,0.083,0.2,0.15c0.133,0.133,0.233,0.283,0.3,0.45
		L29-2.2L45.2-5.3z"/>
</symbol>
<symbol  id="P38" viewBox="-0.017 -46.167 68.917 46.142">
	<path class="provincia" d="M68.1-10.4l0.75-1.75c0.033-0.067,0.05-0.167,0.05-0.3c-0.033-0.066-0.083-0.15-0.15-0.25l-10.4-10.15
		l-3.95-8.8c-0.033-0.067-0.066-0.117-0.1-0.15c-0.066-0.034-0.133-0.067-0.2-0.1l-4.75-1.2c-0.1-0.033-0.2-0.033-0.3,0
		c-0.133,0.067-0.216,0.15-0.25,0.25l-6.55,12.9c-0.067,0.1-0.083,0.2-0.05,0.3c0,0.133,0.05,0.233,0.15,0.3
		c0.066,0.067,0.167,0.1,0.3,0.1L55.6-18h0.05l3.3,5c0.066,0.1,0.167,0.167,0.3,0.2l8.25,2.65c0.1,0.066,0.217,0.066,0.35,0
		C67.95-10.217,68.033-10.3,68.1-10.4z M12.9-0.5c0.1-0.067,0.15-0.167,0.15-0.3l1.1-7.2c0-0.067-0.017-0.15-0.05-0.25l-2.65-6
		c-0.067-0.1-0.133-0.183-0.2-0.25c-0.1-0.033-0.183-0.05-0.25-0.05h-0.75c-0.133,0-0.25,0.05-0.35,0.15s-0.15,0.217-0.15,0.35v3
		L5.6-3.4C5.533-3.267,5.517-3.15,5.55-3.05c0,0.1,0.05,0.183,0.15,0.25l2.5,2.6c0.033,0.067,0.083,0.117,0.15,0.15
		c0.066,0.033,0.15,0.033,0.25,0l4-0.35C12.7-0.4,12.8-0.433,12.9-0.5z M6.7-37.2c0.1,0.034,0.2,0,0.3-0.1l1.45-1.3
		c0.1-0.066,0.167-0.167,0.2-0.3c0-0.133-0.05-0.267-0.15-0.4l-2.55-3.05v-3.3c0-0.133-0.034-0.25-0.1-0.35
		c-0.1-0.067-0.2-0.117-0.3-0.15C5.417-46.183,5.3-46.167,5.2-46.1l-5,3.35c-0.1,0.1-0.167,0.2-0.2,0.3
		c-0.033,0.133-0.017,0.25,0.05,0.35c0.034,0.1,0.1,0.184,0.2,0.25l3.15,1.7l2.95,2.8C6.417-37.25,6.533-37.2,6.7-37.2z
		 M35.15-27.95c0.033-0.1,0.05-0.2,0.05-0.3c-0.034-0.1-0.1-0.2-0.2-0.3l-3.95-2.9c-0.1-0.066-0.2-0.1-0.3-0.1
		c-0.133,0-0.25,0.05-0.35,0.15l-3.2,3.1c-0.1,0.066-0.15,0.15-0.15,0.25c-0.033,0.133-0.017,0.25,0.05,0.35l1.6,2.7
		c0.033,0.133,0.117,0.217,0.25,0.25s0.267,0.017,0.4-0.05l5.6-2.9C35.05-27.733,35.117-27.817,35.15-27.95z"/>
</symbol>
<symbol  id="P39" viewBox="0 -25.05 42.35 25.05">
	<path class="provincia" d="M31.3-1.6L34.5,0l7.85-3.9L37.1-6.65c-0.1-0.033-0.167-0.1-0.2-0.2L36.35-7.7c-0.067-0.066-0.1-0.15-0.1-0.25
		v-2.25L31.3-9.35c-0.1,0-0.167-0.017-0.2-0.05c-0.1,0-0.167-0.033-0.2-0.1l-9.4-8.35c-0.1-0.066-0.167-0.167-0.2-0.3l-0.15-1.35
		c0-0.133,0.033-0.25,0.1-0.35l3-3.95l-2.65-1.25L11.2-14.8c-0.034,0.066-0.083,0.1-0.15,0.1l-0.85,0.3
		c-0.1,0.033-0.184,0.05-0.25,0.05L3.1-15.4L0-9.65L6.25-7.3C6.283-7.267,6.333-7.233,6.4-7.2l0.55,0.5
		c0.033,0.067,0.066,0.133,0.1,0.2L8.6-3.15h8.9c0.067,0,0.117,0,0.15,0c0.067,0,0.117,0,0.15,0L28.3,0l1.9-1.5
		c0.167-0.133,0.35-0.2,0.55-0.2c0.167,0,0.317,0.017,0.45,0.05C31.233-1.617,31.267-1.6,31.3-1.6z"/>
</symbol>
<symbol  id="P40" viewBox="0 -30.8 39.55 30.8">
	<path class="provincia" d="M39.55-8.75L30.4-13.7c-0.033-0.033-0.066-0.066-0.1-0.1l-18.55-17L0-15.45L5.85-5.7L18.1-3.6h0.05L32.1,0
		L39.55-8.75z"/>
</symbol>
<symbol  id="P41" viewBox="0 -47.9 52.5 47.9">
	<path class="provincia" d="M41.2-17.85L52.5-33l-12.9-8.35L17.35-43.7c-0.033,0-0.067-0.017-0.1-0.05L3.35-47.9v29.45
		C3.383-18.283,3.267-18.067,3-17.8c-0.267,0.267-0.483,0.383-0.65,0.35H0l2.55,2.85h8.55c0.167,0,0.316,0.017,0.45,0.05
		c0.067,0.033,0.133,0.083,0.2,0.15c0.133,0.133,0.233,0.283,0.3,0.45c0.034,0.167,0.05,0.3,0.05,0.4v0.05l-1.15,6.6L24.6,0
		l7.95-20.2v0.05c0.034-0.233,0.2-0.417,0.5-0.55c0.233-0.133,0.483-0.167,0.75-0.1h0.05L41.2-17.85z"/>
</symbol>
<symbol  id="P42" viewBox="0 -38.05 45.95 38.05">
	<path class="provincia" d="M45.05-5.85l0.9-7.1L40.3-17.9c-0.1-0.033-0.15-0.1-0.15-0.2c-0.033-0.066-0.05-0.15-0.05-0.25l1.5-6.85h-0.1
		l-3.15,2.1c-0.067,0.067-0.133,0.1-0.2,0.1c-0.1,0-0.183-0.017-0.25-0.05l-5-1.75c-0.1-0.034-0.183-0.1-0.25-0.2
		c-0.066-0.067-0.1-0.15-0.1-0.25s0.034-0.2,0.1-0.3l7.1-9.6l-8.9-2.9l-8.7,8.2c-0.1,0.1-0.2,0.15-0.3,0.15L8.4-28.65H8.35
		c-0.167,0-0.317-0.017-0.45-0.05L0-19.55l5.85,10.1l2.55-3.1c0.067-0.167,0.35-0.217,0.85-0.15c0.4,0,0.617,0.067,0.65,0.2
		c0.033,0.033,0.067,0.05,0.1,0.05l5.2,7.75c0.066,0,0.133,0,0.2,0h9.95c0.133,0,0.25,0.05,0.35,0.15L30.3,0l6.3-0.75l1.3-6.45
		c0.033-0.1,0.083-0.183,0.15-0.25c0.067-0.066,0.15-0.117,0.25-0.15c0.067,0,0.15,0,0.25,0L45.05-5.85z"/>
</symbol>
<symbol  id="P43" viewBox="0 -38.1 38.1 38.1">
	<path class="provincia" d="M31.3,0l6.8-11.8l-16.3-6.15c-0.1,0-0.167-0.05-0.2-0.15l-8.95-10.4c-0.167-0.067-0.217-0.333-0.15-0.8
		c0.067-0.367,0.15-0.567,0.25-0.6c0-0.033,0.017-0.05,0.05-0.05l3.5-2.5L8.8-38.1l-7.45,7L0-18.95l4.2,6l0.05,0.05
		c0.1,0.2,0.167,0.383,0.2,0.55l13.2,3.05c0.033,0.033,0.067,0.05,0.1,0.05c0.1,0.067,0.2,0.15,0.3,0.25l4.65,4.45L31.3,0z"/>
</symbol>
<symbol  id="P44" viewBox="0 -49 55.1 49">
	<path class="provincia" d="M53.7-7.8l1.4-10.55l-9.6,1.25c-0.033,0-0.067,0-0.1,0c-0.566,0-0.95-0.15-1.15-0.45L38.2-23.1
		c-0.133-0.066-0.25-0.316-0.35-0.75v0.05c-0.2-0.467-0.233-0.767-0.1-0.9l2.5-10.1L25.9-48.2h-0.05l-6-0.8l0.4,3.55
		c0.033,0.333-0.017,0.633-0.15,0.9v-0.05c-0.167,0.333-0.367,0.55-0.6,0.65h-0.05L14-41v-0.05c-0.233,0.167-0.483,0.25-0.75,0.25
		s-0.517-0.083-0.75-0.25l-3.7-2.1L0-34.25l7.3,5.4c0.067,0.067,0.117,0.133,0.15,0.2c0.033,0.066,0.05,0.133,0.05,0.2L6.6-16
		l13,9.3h14.65c0.067,0,0.15,0.017,0.25,0.05c0.067,0.066,0.117,0.133,0.15,0.2L38.5,0L53.7-7.8z"/>
</symbol>
<symbol  id="P45" viewBox="0 -36.4 69.15 36.4">
	<path class="provincia" d="M63.45-15.2l5.7-8.15l-0.8-5.25H58.1c-0.133,0-0.267-0.033-0.4-0.1l-14.75-7.7l-7.9,3.1l1.75,3l-0.05-0.05
		c0.1,0.267,0.15,1.717,0.15,4.35c0.033,0.167-0.083,0.383-0.35,0.65c-0.267,0.267-0.483,0.383-0.65,0.35H23.75
		c-0.1,0-0.183-0.033-0.25-0.1l-0.35-0.2c-0.033,0-0.066-0.034-0.1-0.1l-3.65-4.1c-0.767,0.1-1.233,0.133-1.4,0.1h-0.05l-7.55-1.15
		L0-11.85L1-6l11.4,1.1c0.067,0,0.117,0.017,0.15,0.05l0.65,0.3c0.066,0.033,0.133,0.066,0.2,0.1L17.5,0l3.95-3.75
		c0.066-0.067,0.15-0.117,0.25-0.15l1.05-0.25c0.1,0,0.2,0,0.3,0l9.5,3.3l14.25-4.9l-6.7-5.65c-0.067-0.033-0.117-0.083-0.15-0.15
		c-0.034-0.067-0.05-0.133-0.05-0.2v-1.5c0-0.067,0.017-0.133,0.05-0.2c0.033-0.066,0.083-0.133,0.15-0.2l1.8-1.6
		c0.067-0.067,0.15-0.1,0.25-0.1l1.15-0.15c0.1,0,0.2,0.017,0.3,0.05L57.55-8.1H62l1.25-6.7c0-0.034,0.017-0.083,0.05-0.15
		c0.034-0.066,0.067-0.133,0.1-0.2L63.45-15.2z"/>
</symbol>
<symbol  id="P46" viewBox="0 -52.9 40.35 52.9">
	<path class="provincia" d="M7.6-2.05L7.4-3.6H1.65l-0.7,1.95L3.8,0L7.6-2.05z M21.05-13.75c0.067-0.133,0.233-0.2,0.5-0.2l13.75-1.9
		L33.9-33.7v-0.05c0-0.1,0.033-0.233,0.1-0.4c0-0.033,0-0.067,0-0.1l6.35-12.2L25.1-52.9l-8.4,2.7v3.9c0,0.4-0.15,0.75-0.45,1.05
		S15.6-44.8,15.2-44.8H9.95L6.5-40.4l3,7.5c0.133,0.4,0.117,0.783-0.05,1.15c-0.2,0.4-0.467,0.667-0.8,0.8L0-27.25l1.75,6.9l3.2,1.5
		c0.167,0.1,0.316,0.217,0.45,0.35c0.033,0.033,0.067,0.067,0.1,0.1c0.067,0.133,0.133,0.267,0.2,0.4c0,0.033,0.017,0.067,0.05,0.1
		L8.2-8.25l0.75,0.1c0.033,0,0.066,0,0.1,0l7.7,1h0.05l4.05-6.4l0.05-0.05C20.933-13.633,20.983-13.683,21.05-13.75z"/>
</symbol>
<symbol  id="P47" viewBox="0 -41.85 37.85 41.85">
	<path class="provincia" d="M3.05-1.9l7.8,1.9v-13.45c0-0.2,0.066-0.4,0.2-0.6c0.1-0.2,0.3-0.333,0.6-0.4L36.9-20.5l0.95-8.7l-11.65-2
		c-0.034,0-0.067-0.017-0.1-0.05c-0.133-0.033-0.217-0.067-0.25-0.1L25.8-31.4c-0.167-0.067-0.283-0.184-0.35-0.35l0.05,0.05
		l-6.15-10.15l-16,2.25v12.55c0,0.033,0,0.066,0,0.1c0,0.034,0,0.067,0,0.1L0-9.15L3.05-1.9z"/>
</symbol>
<symbol  id="P48" viewBox="0 -13.6 25.8 13.6">
	<path class="provincia" d="M25.8-3.8l-4.9-9.8l-7.35,1.05l-1.05,3c-0.1,0.233-0.233,0.383-0.4,0.45v0.05c-0.167,0.1-0.317,0.15-0.45,0.15
		l-4.7,1.15L5.55-7C5.417-6.933,5.3-6.933,5.2-7L0-8.25v1.4L6.5-3.5c0.267,0.167,0.483,0.383,0.65,0.65L16.35,0L25.8-3.8z"/>
</symbol>
<symbol  id="P49" viewBox="0 -40.65 44.55 40.65">
	<path class="provincia" d="M44.55-27.95v-12l-15.9,3.1l0.05-0.05c-0.267,0.1-0.517,0.066-0.75-0.1c-0.2-0.1-0.333-0.283-0.4-0.55
		l-0.95-3.1l-11.95,5.4l6.5,9.25c0.133,0.167,0.2,0.35,0.2,0.55c0,0.133-0.017,0.284-0.05,0.45c-0.033,0.033-0.05,0.067-0.05,0.1
		c-0.167,0.233-0.35,0.367-0.55,0.4l-7.15,3.3l-1.45,9.6c-0.033,0.233-0.117,0.417-0.25,0.55c-0.233,0.233-0.434,0.333-0.6,0.3
		L0-7.95v2.1L4.55,0L41.2-10.55L44.55-27.95z"/>
</symbol>
<symbol  id="P50" viewBox="0 -65.2 71.05 65.2">
	<path class="provincia" d="M62.2-48.85l7.85,0.7l1-2.45l-4.2-6.45L50.7-48.5c-0.133,0.067-0.25,0.067-0.35,0
		c-0.133-0.033-0.233-0.1-0.3-0.2l-4.15-6.9H31.65c-0.1,0-0.2-0.033-0.3-0.1l-13.3-9.5L6.2-56.1L0-47.75l0.65,0.2L3.4-49.4
		c0.067-0.033,0.15-0.05,0.25-0.05H7.6c0.1,0,0.2,0.017,0.3,0.05c0.067,0.066,0.133,0.15,0.2,0.25c0.033,0.1,0.033,0.2,0,0.3
		l-1.8,8.4l5.55,4.85c0.033,0.067,0.083,0.133,0.15,0.2c0,0.1,0,0.183,0,0.25l-0.95,7.85l9.3-2.85c0.1-0.033,0.217-0.033,0.35,0
		c0.1,0.066,0.183,0.133,0.25,0.2l4.5,7c0.033,0.1,0.05,0.2,0.05,0.3c0,0.133-0.033,0.233-0.1,0.3l-2.55,3.55l3.9,13.25L33.3,0
		l6.9-14.15v-11.2c0-0.066,0.017-0.133,0.05-0.2c0.033-0.067,0.083-0.117,0.15-0.15l17.25-15.05l4.05-7.8
		c0.033-0.1,0.1-0.184,0.2-0.25C62-48.833,62.1-48.85,62.2-48.85z"/>
</symbol>
<symbol  id="P51" viewBox="0 -7.7 7.7 7.7">
	<polygon class="provincia" points="7.7,0 7.7,-7.7 0,-7.7 0,0 	"/>
</symbol>
<symbol  id="P52" viewBox="0 -7.7 7.7 7.7">
	<polygon class="provincia" points="0,-7.7 0,0 7.7,0 7.7,-7.7 	"/>
</symbol>
<polyline class="linea_canarias" points="291.2,370.85 291.2,326.15 323.8,293.55 477.25,293.55 "/>
<use xlink:href="#P15"  width="40.85" height="39.35" y="-39.35" transform="matrix(1 0 0 -1 79.8501 30.6499)" style="overflow:visible;"/>
<use xlink:href="#P36"  width="28.6" height="33.8" y="-33.8" transform="matrix(1 0 0 -1 87.4502 63.5498)" style="overflow:visible;"/>
<use xlink:href="#P27"  width="28.55" height="51.15" y="-51.15" transform="matrix(1 0 0 -1 114.25 32.1001)" style="overflow:visible;"/>
<use xlink:href="#P32"  width="42.2" height="25.95" y="-25.95" transform="matrix(1 0 0 -1 102.6499 75.2998)" style="overflow:visible;"/>
<use xlink:href="#P33"  width="69.1" height="21.05" y="-21.05" transform="matrix(1 0 0 -1 138.3501 39.6499)" style="overflow:visible;"/>
<use xlink:href="#P24"  width="62.1" height="41.95" y="-41.95" transform="matrix(1 0 0 -1 139.8501 55.2998)" style="overflow:visible;"/>
<use xlink:href="#P39"  width="42.35" height="25.05" y="-25.05" transform="matrix(1 0 0 -1 201.8999 44.6001)" style="overflow:visible;"/>
<use xlink:href="#P34"  width="27.1" height="45.9" y="-45.9" transform="matrix(1 0 0 -1 196.6001 62.1001)" style="overflow:visible;"/>
<use xlink:href="#P49"  width="44.55" height="40.65" y="-40.65" transform="matrix(1 0 0 -1 140.5498 88.7002)" style="overflow:visible;"/>
<use xlink:href="#P47"  width="37.85" height="41.85" y="-41.85" transform="matrix(1 0 0 -1 183.75 89.3999)" style="overflow:visible;"/>
<use xlink:href="#P48"  width="25.8" height="13.6" y="-13.6" transform="matrix(1 0 0 -1 241.1499 46.6001)" style="overflow:visible;"/>
<use xlink:href="#P20"  width="22.85" height="16.2" y="-16.2" transform="matrix(1 0 0 -1 263.9502 48.7998)" style="overflow:visible;"/>
<use xlink:href="#P01"  width="25.5" height="23.05" y="-23.05" transform="matrix(1 0 0 -1 245.1001 56.4502)" style="overflow:visible;"/>
<use xlink:href="#P09"  width="45.75" height="61.35" y="-61.35" transform="matrix(1 0 0 -1 217.5498 56.8501)" style="overflow:visible;"/>
<use xlink:href="#P26"  width="37.55" height="23.75" y="-23.75" transform="matrix(1 0 0 -1 248.7998 76.2998)" style="overflow:visible;"/>
<use xlink:href="#P31"  width="41.8" height="49.85" y="-49.85" transform="matrix(1 0 0 -1 269.6001 51.6499)" style="overflow:visible;"/>
<use xlink:href="#P42"  width="45.95" height="38.05" y="-38.05" transform="matrix(1 0 0 -1 238.4502 96.0498)" style="overflow:visible;"/>
<use xlink:href="#P22"  width="46.15" height="55.85" y="-55.85" transform="matrix(1 0 0 -1 310.2998 65.7002)" style="overflow:visible;"/>
<use xlink:href="#P50"  width="71.05" height="65.2" y="-65.2" transform="matrix(1 0 0 -1 275.5 74.7998)" style="overflow:visible;"/>
<use xlink:href="#P44"  width="55.1" height="49" y="-49" transform="matrix(1 0 0 -1 288 125.7002)" style="overflow:visible;"/>
<use xlink:href="#P25"  width="39.7" height="57.3" y="-57.3" transform="matrix(1 0 0 -1 347.0996 67.0498)" style="overflow:visible;"/>
<use xlink:href="#P17"  width="40.55" height="27.85" y="-27.85" transform="matrix(1 0 0 -1 386.9004 77.6001)" style="overflow:visible;"/>
<use xlink:href="#P08"  width="36.5" height="39.55" y="-39.55" transform="matrix(1 0 0 -1 377.5996 85.5)" style="overflow:visible;"/>
<use xlink:href="#P43"  width="38.1" height="38.1" y="-38.1" transform="matrix(1 0 0 -1 345 113.9502)" style="overflow:visible;"/>
<use xlink:href="#P12"  width="35.5" height="37.7" y="-37.7" transform="matrix(1 0 0 -1 316.25 145.8999)" style="overflow:visible;"/>
<use xlink:href="#P07"  width="88.733" height="58" x="-0.017" y="-58" transform="matrix(1 0 0 -1 376.4004 164.8999)" style="overflow:visible;"/>
<use xlink:href="#P03"  width="36" height="36" y="-36" transform="matrix(1 0 0 -1 309.9004 217.75)" style="overflow:visible;"/>
<use xlink:href="#P46"  width="40.35" height="52.9" y="-52.9" transform="matrix(1 0 0 -1 297.5 169.75)" style="overflow:visible;"/>
<use xlink:href="#P30"  width="44.55" height="49.4" y="-49.4" transform="matrix(1 0 0 -1 273.2002 223.4502)" style="overflow:visible;"/>
<use xlink:href="#P19"  width="54.05" height="41.5" y="-41.5" transform="matrix(1 0 0 -1 238.3999 127.7002)" style="overflow:visible;"/>
<use xlink:href="#P16"  width="54.65" height="52.2" y="-52.2" transform="matrix(1 0 0 -1 248.3999 151.3501)" style="overflow:visible;"/>
<use xlink:href="#P28"  width="41.2" height="43.65" y="-43.65" transform="matrix(1 0 0 -1 206.9502 133.7998)" style="overflow:visible;"/>
<use xlink:href="#P02"  width="51.25" height="48.7" y="-48.7" transform="matrix(1 0 0 -1 259.9502 199.25)" style="overflow:visible;"/>
<use xlink:href="#P04"  width="41.8" height="42.55" y="-42.55" transform="matrix(1 0 0 -1 249.25 256.5498)" style="overflow:visible;"/>
<use xlink:href="#P18"  width="61.55" height="48.7" y="-48.7" transform="matrix(1 0 0 -1 212.9502 249.1504)" style="overflow:visible;"/>
<use xlink:href="#P23"  width="52.35" height="39.95" y="-39.95" transform="matrix(1 0 0 -1 214.4502 232.2998)" style="overflow:visible;"/>
<use xlink:href="#P14"  width="45.95" height="55.2" y="-55.2" transform="matrix(1 0 0 -1 173.7002 225.0498)" style="overflow:visible;"/>
<use xlink:href="#P41"  width="52.5" height="47.9" y="-47.9" transform="matrix(1 0 0 -1 147.25 245.7998)" style="overflow:visible;"/>
<use xlink:href="#P21"  width="37.55" height="48.5" y="-48.5" transform="matrix(1 0 0 -1 119.6001 244.2998)" style="overflow:visible;"/>
<use xlink:href="#P11"  width="36.05" height="35.7" y="-35.7" transform="matrix(1 0 0 -1 149 289.3496)" style="overflow:visible;"/>
<use xlink:href="#P51"  width="7.7" height="7.7" y="-7.7" transform="matrix(1 0 0 -1 177.4502 328.9004)" style="overflow:visible;"/>
<use xlink:href="#P29"  width="48.85" height="32.6" y="-32.6" transform="matrix(1 0 0 -1 176.4502 280.0996)" style="overflow:visible;"/>
<use xlink:href="#P52"  width="7.7" height="7.7" y="-7.7" transform="matrix(1 0 0 -1 252.2002 347.8496)" style="overflow:visible;"/>
<use xlink:href="#P38"  width="68.917" height="46.142" x="-0.017" y="-46.167" transform="matrix(1 0 0 -1 312.5996 323.25)" style="overflow:visible;"/>
<use xlink:href="#P35"  width="80.6" height="56.9" x="0.025" y="-56.9" transform="matrix(1 0 0 -1 390.1504 309.5498)" style="overflow:visible;"/>
<use xlink:href="#P13"  width="67.65" height="41.9" y="-41.9" transform="matrix(1 0 0 -1 193.7998 192.9502)" style="overflow:visible;"/>
<use xlink:href="#P45"  width="69.15" height="36.4" y="-36.4" transform="matrix(1 0 0 -1 184.2998 165.9502)" style="overflow:visible;"/>
<use xlink:href="#P06"  width="75.75" height="52.35" y="-52.35" transform="matrix(1 0 0 -1 124.4502 197.6499)" style="overflow:visible;"/>
<use xlink:href="#P10"  width="70.3" height="50.95" y="-50.95" transform="matrix(1 0 0 -1 121.7002 157.3501)" style="overflow:visible;"/>
<use xlink:href="#P05"  width="40.8" height="37.4" y="-37.4" transform="matrix(1 0 0 -1 174.3999 131.6001)" style="overflow:visible;"/>
<use xlink:href="#P37"  width="48.05" height="37" y="-37" transform="matrix(1 0 0 -1 140.7002 125.5498)" style="overflow:visible;"/>
<use xlink:href="#P40"  width="39.55" height="30.8" y="-30.8" transform="matrix(1 0 0 -1 204.7998 116.7998)" style="overflow:visible;"/>
</svg>
