<?xml version="1.0" encoding="utf-8"?>
<!-- Generator: Adobe Illustrator 16.0.0, SVG Export Plug-In . SVG Version: 6.00 Build 0)  -->
<!DOCTYPE svg PUBLIC "-//W3C//DTD SVG 1.1//EN" "http://www.w3.org/Graphics/SVG/1.1/DTD/svg11.dtd">
<svg version="1.1" id="Capa_2" xmlns="http://www.w3.org/2000/svg" xmlns:xlink="http://www.w3.org/1999/xlink" x="0px" y="0px"
	 width="4100px" height="400px" viewBox="0 0 4100 400" style="enable-background:new 0 0 4100 400;" xml:space="preserve">
<style type="text/css">
<![CDATA[
	.st0{fill-rule:evenodd;clip-rule:evenodd;fill:#FFCC33;}
	.st1{fill-rule:evenodd;clip-rule:evenodd;fill:#FFCD0F;}
	.st2{fill-rule:evenodd;clip-rule:evenodd;fill:#D3D3D3;}
]]>
</style>
<g>
	<path class="st0" d="M6481.5,144.6l58.55,10.1l-58.55,59.75V144.6z M199.5,8.9l58.1,122.95l132.45,22.85l-93.4,95.3l22.9,140.05
		L202.3,326.2L81.35,388.15l23.8-132.4l-96.25-102l128.65-18.1L199.5,8.9z M667.6,131.85l132.45,22.85l-93.4,95.3l22.9,140.05
		L612.3,326.2l-120.95,61.95l23.8-132.4l-96.25-102l128.65-18.1L609.5,8.9L667.6,131.85z M1019.5,8.9l58.1,122.95l132.45,22.85
		l-93.4,95.3l22.9,140.05L1022.3,326.2l-120.95,61.95l23.8-132.4l-96.25-102l128.65-18.1L1019.5,8.9z M1367.55,135.65L1429.5,8.9
		l58.1,122.95l132.45,22.85l-93.4,95.3l22.9,140.05L1432.3,326.2l-120.95,61.95l23.8-132.4l-96.25-102L1367.55,135.65z M1839.5,8.9
		l58.1,122.95l132.45,22.85l-93.4,95.3l22.9,140.05L1842.3,326.2l-120.95,61.95l23.8-132.4l-96.25-102l128.65-18.1L1839.5,8.9z
		 M2346.65,250l22.899,140.05L2252.3,326.2l-120.95,61.95l23.801-132.4l-96.25-102l128.649-18.1L2249.5,8.9l58.1,122.95
		l132.45,22.85L2346.65,250z"/>
	<path class="st2" d="M3007.55,135.65L3069.5,8.9l58.1,122.95l132.45,22.85L3166.65,250l22.899,140.05L3072.3,326.2l-120.95,61.95
		l23.801-132.4l-96.25-102L3007.55,135.65z M3576.65,250l22.899,140.05L3482.3,326.2l-120.95,61.95l23.801-132.4l-96.25-102
		l128.649-18.1L3479.5,8.9l58.1,122.95l132.45,22.85L3576.65,250z M3889.5,8.9l58.1,122.95l132.45,22.85L3986.65,250l22.899,140.05
		L3892.3,326.2l-120.95,61.95l23.801-132.4l-96.25-102l128.649-18.1L3889.5,8.9z"/>
	<polygon class="st1" points="2597.55,135.65 2659.5,8.9 2717.6,131.85 2850.05,154.7 2756.65,250 2779.55,390.05 2662.3,326.2 
		2541.35,388.15 2565.15,255.75 2468.9,153.75 	"/>
</g>
</svg>
