<svg version="1.1" id="Capa_1" xmlns="http://www.w3.org/2000/svg" xmlns:xlink="http://www.w3.org/1999/xlink" x="0px" y="0px"
	 width="550px" height="400px" viewBox="0 0 550 400" enable-background="new 0 0 550 400" xml:space="preserve">
<path fill-rule="evenodd" clip-rule="evenodd" fill="#0099CC" d="M423.7,86.2l3.149,10.6l-11.3,9.5l-0.899-2.65l-0.45-0.35
	l-11.8-1.45l-1.25-2.3l4.6-1.25l0.35-0.35l1.65-5.8c0.033-0.066,0-0.183-0.1-0.35c-0.101-0.133-0.184-0.216-0.25-0.25l-8.851-2.85
	c-0.1-0.034-0.2-0.034-0.3,0l-5.3,1.65l-4.4-6.6l-0.05-0.05l-2.85-4.1l8.699,2.75c0.134,0.033,0.267,0.017,0.4-0.05l5.7-2.75
	l10.5,2.3L419.8,77l8.15,4.75V83l-4.05,2.65c-0.034,0.033-0.084,0.117-0.15,0.25C423.684,86.067,423.667,86.167,423.7,86.2z
	 M405.2,97.4l-4.9,1.4c-0.033,0-0.1,0.1-0.2,0.3c-0.1,0.233-0.133,0.367-0.1,0.4l1.7,3.05l0.35,0.25l11.75,1.45l0.9,2.7l-13.55,8.15
	l-3.301,6.55l-13.1,4l-7.65-13.2v-5.95l4.65-1.05c0.267-0.133,0.4-0.267,0.4-0.4l2.55-17.7l3.3-2.6l4.3,6.45
	c0.2,0.2,0.384,0.267,0.55,0.2l5.551-1.7l8.25,2.65L405.2,97.4z M355.3,66.35l18.05,5.2l1.95,8.35c0,0.1,0.05,0.184,0.15,0.25
	c0.1,0.067,0.217,0.1,0.35,0.1l8.4-1l3.25,4.65L383.7,87l-2.5,17.55l-4.7,1c-0.066,0.034-0.15,0.1-0.25,0.2
	c-0.1,0.133-0.15,0.233-0.15,0.3v6.2l-9.35,5l-4.65,4.55l-13.05,3.1l-2.55-6.25l4.7-4.4c0.066-0.067,0.1-0.317,0.1-0.75
	c-0.033-0.433-0.083-0.683-0.149-0.75l-2.851-2.35l6.65-8.45c0.066-0.133,0.133-0.284,0.2-0.45l3.8-17.6
	c0.033-0.167,0.033-0.316,0-0.45c-0.533-2.034-1.084-4.083-1.65-6.15c-1.133-4.133-1.75-6.233-1.85-6.3L355.3,66.35z M334.3,72.85
	c0.066,0.033,0.15,0.05,0.25,0.05c0.066,0,0.134-0.017,0.2-0.05l5.85-2.6l13.351,1.5l3,12l-3.7,17.15l-7.1,9.05
	c-0.101,0.1-0.134,0.333-0.101,0.7s0.117,0.6,0.25,0.7l2.7,2.2l-4.35,4.15c-0.067,0.066-0.134,0.233-0.2,0.5
	c-0.101,0.267-0.134,0.433-0.101,0.5l2.75,6.75l-4.699,7.2v0.05l1.3,11.9l-10.3-1.3c-0.4,0-0.667,0.1-0.801,0.3l-6.1,5.6
	c-0.066,0.033-0.134,0.183-0.2,0.45c-0.1,0.267-0.133,0.434-0.1,0.5l2.6,10.5l-14.55,13.6c-0.066,0.033-0.116,0.083-0.15,0.15
	c-0.066,0-0.133,0-0.199,0l-6.65,0.9l0.5-4.2c0.033-0.233,0-0.434-0.1-0.6c-0.101-0.2-0.233-0.333-0.4-0.4l-5.5-2.95
	c-0.167-0.1-0.333-0.15-0.5-0.15s-0.333,0.05-0.5,0.15l-4.05,2.3l-9.45-9.55l7.75-5.75l-0.85-12.65c-0.034,0-0.2-0.267-0.5-0.8
	l-12.301-9.45l-6.649-8.95l1.5-0.55l2.95,2h3.949l-1.85-8.7L287,110l-1.05-8.6l10.05,3.05l4.5-7l-2.7-3.75l4-13.65l7.15-6.05
	l-0.05-0.35c0-0.066,0.199-0.183,0.6-0.35c0.167-0.1,0.35-0.183,0.55-0.25l3.851-7.95l0.05-0.05l5.35,2.2
	c0.066,0.033,0.134,0.05,0.2,0.05h5.9L334.3,72.85z M376.45,113.25L383.8,126l-16.85,6.35L358,142.8c-0.033,0.034-0.033,0.15,0,0.35
	c0.033,0.2,0.066,0.317,0.1,0.35l4.051,2.85l-8.4,6.35c-0.033-0.034-0.066-0.067-0.1-0.1l-7.801-7.3l-1.399-12.5l4.35-6.2
	c0.134-0.233,0.184-0.467,0.15-0.7l13.55-3.15c0.066-0.033,0.134-0.083,0.2-0.15l4.7-4.55L376.45,113.25z M344.45,146.75l7.85,7.3
	c0.033,0.034,0.066,0.067,0.101,0.1l-18.851,30l-14.1-1.9l-3.851-6.55l15-14c0.101-0.133,0.184-0.284,0.25-0.45
	c0.067-0.2,0.084-0.383,0.051-0.55l-2.601-10.45l5.3-4.9L344.45,146.75z M387.25,206.25l1.05,3.6l-6.55,6.65l-5.6-2.15l1.199-2.1
	l1.051-3.55L387.25,206.25z M456.35,169.9l-4.1,1.2l-2.4-4.55l11-1.7l4.4,7.95l-1.6,1.05L456.35,169.9z M419.7,188.2l-2.851-1.35
	l-4.199,4.75l-4.65-4l10.45-9.55l9.25-5.85l1.899,5.15l3.601,1.6l3.899-1.6l3.7,1.15l-3.899,8.9v5.15l-6.65,5.25l-2-3.9h-7.4
	L419.7,188.2z M383.95,219.35h2.649l-4.85,4.101V221L383.95,219.35z M325.05,237.6c-0.066,0.067-0.116,0.134-0.149,0.2l-7.25,16.9
	l-6.2-7.7l-2.101-9.8l4.25-15.9l8.851,2.851c0.133,0.033,0.25,0.017,0.35-0.051l16.5-6.899l4.851,1.1l2.449,3.45L325.05,237.6z
	 M338.55,216.45l-15.95,6.7l-8.949-2.851c0.033-0.1,0.05-0.2,0.05-0.3v-3.95c0-0.267-0.101-0.5-0.3-0.7
	c-0.2-0.199-0.434-0.3-0.7-0.3h-5.5l-3.8-4.85l3.1-7.75c0.1-0.267,0.1-0.517,0-0.75c-0.134-0.267-0.316-0.45-0.55-0.55l-9.05-3.9
	l1.899-7.5l3.4-1.6c0.133-0.066,0.25-0.15,0.35-0.25c0.066-0.133,0.134-0.267,0.2-0.4l2.55-9.95l1.05-0.15h0.101l7.7-1
	c0.133-0.033,0.25-0.066,0.35-0.1l4.25,6.7c0.033,0.033,0.083,0.083,0.15,0.15c0.033,0.033,0.1,0.05,0.199,0.05l14.2,1.95
	L331.9,203.5c0,0.066,0.017,0.15,0.05,0.25L338.55,216.45z M390.1,356.95l4.45-3.55v-3.5l9.7,1.8l-0.3,2.3l2,2.35l-1.4,6l-6.399,4.2
	l-6.65-4.2L390.1,356.95z M343.3,354.95l-3.8-3.65l2-3.5l6.75,3.5L343.3,354.95z M325.6,323.65l1.15,7.699l-2.85,6.45h-1.551v-3.5
	l-4.35-8l2.95-3.05L325.6,323.65z M371.65,336.1l8.85-2.85l1.1,2.45L370.95,346.1l-4.05,9l-5.351,1.351l-7.05-13.9l13.7-1.3
	L371.65,336.1z M469.1,318.4L458.65,324.3h-3.5l1.699-3.5V316.9l7.301-3.801l2.699,1.051l1.801-4.851l2.25,1.4L469.1,314.6V318.4z
	 M456.95,334.5l-1.9,2.85l1.601,3.4l-2.75,6.4L445.6,349.3l-5,5.65l-6-2.95h4.351l6.1-4.6v-3.5l3.15-4.851l3.399-8.85l4.301-2.101
	L456.95,334.5z M257.5,46.05l10.15,4.05l-5.35,10.65l-8-1.15l-1.15-3.3c-0.033-0.1-0.083-0.167-0.15-0.2
	c-0.067-0.067-0.133-0.1-0.2-0.1l-4.95-1.2l-1.4-0.75l-5.8,1.4v-2.3l6.75-3.5c0.233-0.133,0.4-0.333,0.5-0.6L257.5,46.05z
	 M276.4,51.7c0.066,0.033,0.149,0.033,0.25,0l8.6-3.5l2.25,1.9L278,61.75l-6.25,3.8l-8.5-4.45l5.4-10.75L276.4,51.7z M279.2,63.35
	l10.149-12.3c0.034,0,0.084,0.017,0.15,0.05l6.5,1.7l-2,7.15c-0.033,0.066,0,0.167,0.1,0.3c0.067,0.167,0.134,0.267,0.2,0.3
	l4.25,1.7c0.434-0.267,0.65-0.433,0.65-0.5V59l12.899,5.3l-3.649,7.5l-8.4,7.1l-4.45,15.15l2.5,3.4l-3,4.65l-9.85-3
	c-0.066-0.033-0.116-0.05-0.15-0.05L284.7,98.8l5.2-6.8l-12.051-8.85l-9-2.5L270.2,78l0.1-0.45V75.7l2.8-8.65L279.2,63.35z
	 M253.6,60.45c0.066,0.033,0.15,0.066,0.25,0.1l8.55,1.25l8.8,4.6l-2.85,8.85l-0.05,0.3v1.75l-1.4,2.75l-9-2.5l-1.55-3.45l-0.4-0.45
	L244.4,66.8l0.9-1.3h6.3l0.6-1.8l-3.4-2.6l-1-5.3l4.45,1.05l1.2,3.4C253.45,60.317,253.5,60.383,253.6,60.45z M246.95,61.85
	l0.35,0.6l1.4,1.05h-3.95l-0.8,0.45l-1.8,2.6l0.3,1.4l10.4,6.2l-5.5,1.3l-1.1,16.2l6,7.75c0.067,0.1,0.15,0.184,0.25,0.25l-5,7.45
	l-3-3.6c-0.067-0.1-0.15-0.15-0.25-0.15c-0.133-0.033-0.25-0.033-0.35,0s-0.167,0.1-0.2,0.2l-6.75,11.75l-13.8,3.5l-1.05-9.6l3.15-7
	c0.033-0.1,0.05-0.184,0.05-0.25c0-0.1-0.033-0.184-0.1-0.25l-6.25-7.05L217,76.15l4.25-5.2l1.25,1.2l1.15,0.2l5.2-2.55l0.35-1.5
	l-3.5-4.6l8.35-7.4l5.35,1.4c0.1,0,0.184,0,0.25,0h0.25l6-1.45L246.95,61.85z M255,72.25l9.25,4.5l1.35-1.25l-2-5.05l-0.75-0.6
	l-6.2-1.25l-1.05,0.5l-1.05,1.8L255,72.25z M256.95,70.7l5,1l0.85,2.15l-6-2.9L256.95,70.7z M256.9,79.4L277,85l10.05,7.4l-5.3,6.95
	l0.5,0.3l-3.9,1l-1.25-6.1l-9.25-1.2l-4.9,4.9h-9.1c-0.033-0.033-0.05-0.067-0.05-0.1l-5.5-7.1l0.95-14l5.05-1.2
	c0.2-0.067,0.367-0.167,0.5-0.3l1.45,3.25L256.9,79.4z M275.45,96.35l1.399,6.8l7.051-1.9l1,7.95l-5.851,5.1l1.601,7.45h-0.9
	l-3.25-2.2l-5,1.75l7.5,10.15l-9.85,3.2l-8.9-8.4l-13.45-1.05c-0.233,0-0.433,0.05-0.6,0.15l-8.35-9.7l6.35-11l3,3.6
	c0.033,0.033,0.167,0.033,0.4,0c0.233,0,0.367-0.017,0.4-0.05l5.4-8.05c0.133,0.067,0.283,0.1,0.45,0.1h9.95l4.75-4.75L275.45,96.35
	z M230.3,44.05l2.1,1.65c0.067,0.066,0.15,0.1,0.25,0.1s0.2-0.017,0.3-0.05L236.4,44l8.95,4.5l-6.15,3.2l-0.55,0.85v2.85l-5.55-0.95
	l-9.4,8.35l-0.15,1.35l3.35,4.4l-3.5,1.7l-10.65-10.5l-0.85-0.3l-7.2,1.1l-3.55-6.6l6.8-2.55l0.55-0.5l1.7-3.65
	c0.033,0,0.066,0,0.1,0h9.1c0.067,0,0.117,0,0.15,0L230.3,44.05z M199.3,52.55l-17.6,6.6l-13.1-1.45l-0.35,0.05L155.5,61.2
	l-10.55-0.65l-3.6-1.25l2.2-4.15V54.2l-5.8-10.25l3.6-4.7c0.033-0.033,0.066-0.067,0.1-0.1c0.033,0,0.066,0,0.1,0h34.25l32.35,7.8
	l-1.25,2.75l-7.45,2.75l-0.05,0.05C199.367,52.5,199.333,52.517,199.3,52.55z M202.45,60.5l-4.35,17.95l-2.9,9.25l-9.2,2.25
	c-0.1,0-0.167,0.033-0.2,0.1c-0.066,0.034-0.117,0.083-0.15,0.15l-3.25,7.65l-36.85-10.6l1.8-2.35l0.1-1l-2.95-6.25l-0.85-0.6
	l-4.3-0.1V71.5l2.75-1.1l0.55-0.6l2.75-7.2l10.45,0.6l12.75-3.45l13.1,1.4l0.45-0.05l17.15-6.45L202.45,60.5z M199.05,78.75
	L203,61.6l1.3,1.05l7.45-1.1l8.8,8.65l-0.05,0.05l-4.45,5.45c-0.1,0.1-0.133,0.216-0.1,0.35l2,18.85c0,0.1,0.05,0.2,0.15,0.3
	l6.15,6.9l-2.95,6.45l-25.2-6.05V88.2L199.05,78.75z M195.1,88.75v14.1c0,0.1,0.033,0.2,0.1,0.3c0.066,0.1,0.167,0.167,0.3,0.2
	l25.6,6.15l1.05,9.5L210,121.1c-0.1,0.033-0.167,0.066-0.2,0.1c-0.066,0.033-0.117,0.083-0.15,0.15l-6.3,10.45l-16.75-2.35v-13
	c0-0.034,0-0.067,0-0.1l-3.4-17.85l3.25-7.65L195.1,88.75z M222.8,119.9l14.25-3.65l8.05,9.45l-9.65,5.25l-18.95,17.4l-12.3-16.05
	l6.15-10.25L222.8,119.9z M237.7,132l8.55-4.65c0.067-0.067,0.133-0.117,0.2-0.15c0.066,0,0.133,0,0.2,0l12.75,1l9.25,8.7
	l11.75-3.85l11.8,9.1l0.75,11.05l-7.45,5.5l-7.7-8.85c-0.1-0.1-0.2-0.167-0.3-0.2s-0.2-0.017-0.3,0.05l-18.1,8.1
	c-0.067,0.034-0.133,0.083-0.2,0.15c-0.066,0.066-0.1,0.15-0.1,0.25l-1.45,8.8l-6.9,2.9l-1.65-9.85l-0.15-0.4l-10.85-15.4l3.85-6.7
	l-0.15-1.15L237.7,132z M239.55,137.15l-3.8,6.65l0.05,1.1l11.1,15.75l1.85,10.9h-7.3L241,171.7l-13.7,7.15l-0.4-0.35l7.85-6.65
	l-0.3-1.7l-17.3-5.9h-0.65l-9.45,3.25l-0.75-0.75l11-16.3c0.067-0.133,0.117-0.267,0.15-0.4l18.6-16.95L239.55,137.15z
	 M168.75,126.15c-0.1,0.033-0.167,0.117-0.2,0.25l-1.1,3.6l-13-5.85l6.85-9.75c0.067-0.066,0.1-0.15,0.1-0.25s-0.017-0.2-0.05-0.3
	c-0.067-0.1-0.15-0.167-0.25-0.2l-7.5-3.45l-1.45-9.85c0-0.1-0.033-0.184-0.1-0.25c-0.1-0.1-0.183-0.15-0.25-0.15l-11.6-2.9
	c-0.067-0.033-0.117-0.05-0.15-0.05v-2.65l4.9-6.3c0.033,0.034,0.083,0.067,0.15,0.1l37.1,10.7l3.4,17.7v12.7l-16.5-3.2
	C168.967,126.017,168.85,126.05,168.75,126.15z M167.85,131.15c0.066-0.033,0.15-0.066,0.25-0.1c0.066-0.066,0.117-0.15,0.15-0.25
	l1.1-3.65l16.65,3.2h0.1l3.15,0.5v10.65l-10.55,9.9c-0.034,0.033-0.067,0.083-0.1,0.15c-0.033,0.067-0.05,0.133-0.05,0.2v4.85
	l-6.3,5.1c-0.033-0.034-0.167-0.05-0.4-0.05c-0.267-0.033-0.417-0.033-0.45,0l-3.8,1.5l-9.15-8.55l-1.35-0.05l-8.75,7.55h-7.75
	l2.25-7.9c0-0.034,0-0.083,0-0.15v-12.2c0-0.067,0-0.117,0-0.15l-2.9-7.3h2.2c0.133,0,0.25-0.033,0.35-0.1l11.25-9.35l13.8,6.15
	C167.65,131.133,167.75,131.15,167.85,131.15z M190.25,141.7V131l13.1,1.85l12.5,16.3c-0.1,0.033-0.167,0.1-0.2,0.2l-10.8,16
	l-2.45-2.25l-1.4,0.1l-4.9,5.2l-11.8,1.1l-10.75-7.55l5.85-4.75c0.033-0.067,0.067-0.117,0.1-0.15c0.033-0.1,0.05-0.183,0.05-0.25
	V152l10.55-9.9c0.033-0.067,0.066-0.133,0.1-0.2C190.233,141.833,190.25,141.767,190.25,141.7z M197.3,170.05l4.45-4.8l2.6,2.35
	c0.033,0.033,0.066,0.066,0.1,0.1l1.65,1.65l1.05,0.25l9.65-3.35l15.3,5.25l-7.4,6.2v1.5l1.8,1.6l1.15,0.15l14.05-7.4h5.05
	c0,0.034,0,0.067,0,0.1l1.3,7c0.034,0.067,0.067,0.133,0.1,0.2l5.8,8.35l-0.9,5.85H242.4c-0.066,0-0.133,0.017-0.2,0.05l-14.95,7.8
	l-8.65-3.4l2.05-3.5c0.033-0.033,0.05-1.383,0.05-4.05c0-0.067-0.067-0.167-0.2-0.3s-0.233-0.2-0.3-0.2h-12.15l-0.35,0.2l-3.85,4.35
	c-0.833-0.133-1.333-0.183-1.5-0.15l-7.9,1.2l-10.7-19.2l1.1-6.4l11.8-1.1L197.3,170.05z M167.75,165.25l4.4-1.75
	c0-0.033,0.017-0.05,0.05-0.05l10.75,7.55l-1.2,6.85l0.1,0.65l10.85,19.55l-29.85,10.75l-22.55-5.3v-7.15
	c0-0.1-0.033-0.184-0.1-0.25c-0.067-0.1-0.133-0.167-0.2-0.2c-0.1-0.033-0.2-0.033-0.3,0l-12.55,3.35l-6.25-13.6h14.2
	c0.133,0,0.25-0.05,0.35-0.15c0.1-0.1,0.15-0.217,0.15-0.35V165.8l4-2.05l0.05,0.05c0.2,0.2,0.434,0.3,0.7,0.3h8.35l0.65-0.25
	l8.4-7.2l8.95,8.4L167.75,165.25z M208.3,192.45h11.4v3.2l-2.25,3.85c-0.034,0.067-0.017,0.2,0.05,0.4c0.1,0.2,0.167,0.317,0.2,0.35
	c6.5,2.467,9.767,3.684,9.8,3.65l15.05-7.851h10.75l5,5.4l3.65,22.05c-1.767,4.167-2.684,6.267-2.75,6.3l-20.4,5.5l-25,0.05
	l-20.65-12.5l7.7-21.05c2.566-3.367,3.833-5.083,3.8-5.15L208.3,192.45z M250.9,172.4l-0.25-1.5c0.033,0,0.067-0.017,0.1-0.05
	l7.25-3.05c0.067-0.033,0.133-0.083,0.2-0.15c0.066-0.066,0.1-0.133,0.1-0.2l1.45-8.85l17.55-7.85l7.45,8.6l0.05,0.05
	c-0.033,0.067-0.05,0.133-0.05,0.2c-0.033,0.1,0.116,0.383,0.45,0.85c0.233,0.367,0.416,0.617,0.55,0.75l9.95,10.05l1.5,3.95
	c0.066,0.2,0.184,0.367,0.35,0.5c0.167,0.1,0.351,0.15,0.55,0.15h5.801l-0.051,0.05c-0.166,0.133-0.267,0.3-0.3,0.5l-2.649,10.15
	l-3.351,1.6c-0.166,0.067-0.283,0.15-0.35,0.25c-0.101,0.133-0.167,0.267-0.2,0.4l-2.15,8.3c-0.066,0.2-0.066,0.4,0,0.6l-6.899,3.95
	l-15.1,2.399l-4.9-4.8l-0.45-0.15l-8.55,1.55l-4.9-5.25l0.9-6.2c0-0.1-1.967-3.034-5.9-8.8l-1.25-6.85h2.1L250.9,172.4z
	 M301.3,169.15l4.351,2.35l-0.301,2.35h-6.55l-1-2.7L301.3,169.15z M131.25,33l2.3,5.85c0.034,0.1,0.1,0.183,0.2,0.25
	c0.067,0.033,0.15,0.05,0.25,0.05h4.9l-3.15,4.1l-0.05,1.1l5.85,10.4l-2.5,4.65l0.55,1.4l3.85,1.35l-2.5,6.55l-3,1.2l-0.6,0.9v7.1
	l0.25,0.25c-0.033,0-0.05,0.017-0.05,0.05l-4.1,5.8l-4.15-3.95c-0.066-0.066-0.133-0.1-0.2-0.1c-0.1-0.034-0.184-0.034-0.25,0
	l-5.85,1.6l-7.35-7.35l2-5c0-0.1,0-0.184,0-0.25c0-0.067-0.017-0.133-0.05-0.2l-3.9-6.4l2.65-19.5l6.05-11.3L131.25,33z M117.4,30.1
	l4,1.2l-6,11.2c-0.033,0.033-0.05,0.083-0.05,0.15l-2.65,19.4l-20.4,4.7c-0.033,0-0.083,0-0.15,0l-1.85,0.4
	c-0.066,0-0.117,0.033-0.15,0.1L84,71.15l2.4-7.2c0-0.067,0-0.133,0-0.2c0-0.1-0.033-0.183-0.1-0.25l-7.15-9.2L90.5,43.8h16.05
	c0.1,0,0.2-0.033,0.3-0.1c0.1-0.067,0.167-0.15,0.2-0.25l1.9-7.6L117.4,30.1z M116.6,69.05l-1.9,4.75h-7.6c-0.1,0-0.2,0.034-0.3,0.1
	l-5.65,4.3c-0.1,0.066-0.15,0.15-0.15,0.25c-0.067,0.1-0.067,0.216,0,0.35l3.2,9.2L86.95,98.2v-7.4l6.9-6.4
	c0.033-0.066,0.066-0.133,0.1-0.2C93.983,84.133,94,84.067,94,84v-2.1c0-0.133-0.033-0.233-0.1-0.3c-0.1-0.1-0.2-0.167-0.3-0.2
	c-0.133,0-0.25,0.033-0.35,0.1l-4.5,2.6v-7.05l3.9-9.35L112.9,63L116.6,69.05z M102.05,78.8l5.25-4h7.55l7.65,7.65
	c0.067,0.066,0.15,0.117,0.25,0.15c0.067,0,0.15,0,0.25,0l5.8-1.65l4.35,4.15c0.067,0.066,0.15,0.117,0.25,0.15s0.2,0.033,0.3,0
	c0.066-0.067,0.133-0.133,0.2-0.2l4.4-6.15l4.7,0.15l2.4,5.15l-7.15,9.2l-0.2,0.6v2.75h-2.8c-0.067,0-0.133,0.017-0.2,0.05
	c-0.066,0.034-0.117,0.083-0.15,0.15l-3.9,4.7l-16-3.1c-0.1-0.033-0.2-0.017-0.3,0.05l-6.95,3.25l-2.4-3.65l4.55-4.25
	c0.1-0.1,0.15-0.217,0.15-0.35c0-0.167-0.033-0.283-0.1-0.35l-4.7-5.3L102.05,78.8z M127.7,200.1l11.6-3.1v6.85
	c0,0.067,0.05,0.15,0.15,0.25c0.1,0.134,0.183,0.217,0.25,0.25l23.4,5.45l30.75-11.1c0.033,0.033,0.167,0.1,0.4,0.2
	c0.233,0.133,0.4,0.184,0.5,0.15l6.7-1L199,200.9l-7.9,21.7l-16.8,10.351l-0.45,1.1l1.6,7.101L157,250.5
	c-0.033,0-0.05,0.017-0.05,0.05h-0.05l-22.1-8.45c-0.167-0.1-1.6-0.483-4.3-1.149l-6.6-7.851l1.25-11.55l9.45-12L127.7,200.1z
	 M119.1,258l14.65-14.3c15.167,5.833,22.8,8.75,22.9,8.75l1.1,6.45h-8.45l-0.35,0.199l-4.3,4.851c-0.033,0.066,0,0.217,0.1,0.45
	s0.183,0.35,0.25,0.35h4.1v29.15l-16.65-15H119.1V258z M157.65,252.4l14.45-7.301l8.15,20.7c0.033,0.101,0.117,0.184,0.25,0.25
	s0.267,0.084,0.4,0.05l7.7-3.05l11.85,15.851L187,287.6l-22.35,2.4l-14.55,4.35v-30.1c0-0.066-0.067-0.167-0.2-0.3
	c-0.133-0.134-0.233-0.2-0.3-0.2h-3.5l3.45-3.85h8.8c0.1,0,0.2-0.017,0.3-0.051c0.067-0.066,0.117-0.149,0.15-0.25
	c0.034-0.1,0.05-0.183,0.05-0.25L157.65,252.4z M155.35,306.5c0.033-0.233,0.033-0.366,0-0.4l-6.95-5.85l1.6-4.85l14.75-4.4
	l21.35-2.3l-11.35,15.75c-0.033,0.066-0.05,0.184-0.05,0.35c0.033,0.167,0.066,0.267,0.1,0.3l8.6,8.75L175,325.7l-16.05-8.2
	l-5.6-9.5l1.9-1.1C155.283,306.866,155.317,306.733,155.35,306.5z M306.7,217.05h5l-0.05,3.7l-1,3.75l-3.9-3.65
	c-0.167-0.166-0.366-0.267-0.6-0.3c-0.2-0.033-0.4,0.017-0.601,0.15l-9.6,5.7c-0.134,0.066-0.25,0.183-0.351,0.35
	c-0.1,0.1-0.149,0.233-0.149,0.4l-1,9.449l-3.4,1.601l-1.6-2c-0.167-0.2-0.351-0.316-0.55-0.351c-0.2-0.066-0.4-0.05-0.601,0.051
	L276.15,241.1l-5.3,7.45l-3.8-1.25l2.05-1.3c0.2-0.134,0.333-0.3,0.4-0.5s0.067-0.417,0-0.65l-3.8-12.55
	c-0.034-0.133-0.1-0.25-0.2-0.35c-0.1-0.134-0.217-0.217-0.35-0.25l-4.45-1.851l2.25-6.35l-3.6-21.85l8.1-1.5l4.9,4.75
	c0.066,0.066,0.133,0.116,0.2,0.149c0.067,0,0.15,0,0.25,0l15.351-2.399c0.033,0,0.083-0.017,0.149-0.051l7-4
	c0.101,0.133,0.233,0.25,0.4,0.35l8.55,3.649l-2.9,7.4c-0.1,0.167-0.133,0.333-0.1,0.5s0.116,0.333,0.25,0.5l4.45,5.7
	c0.066,0.1,0.184,0.184,0.35,0.25C306.434,217.017,306.566,217.05,306.7,217.05z M290.55,240.45c0.2,0.033,0.417,0,0.65-0.101
	l4.649-2.199c0.134-0.067,0.267-0.167,0.4-0.301c0.1-0.166,0.15-0.333,0.15-0.5l1-9.5l8.5-5.05l4.149,3.851l-2.7,10.25
	c-0.066,0.166-0.066,0.316,0,0.449l2.2,10.301c0,0.166,0.066,0.316,0.2,0.449l6.7,8.301c0.1,0.1,0.217,0.199,0.35,0.3l-1.3,3
	c-0.033,0.066-0.05,0.149-0.05,0.25c0,0.1,0.033,0.184,0.1,0.25l3.101,4.149l-15.5,1.601c-0.101,0-0.184,0.033-0.25,0.1l-10,7.45
	c-0.034-0.033-0.051-0.066-0.051-0.1L282.4,262.7l1.35-7.45c0.033-0.2,0.017-0.4-0.05-0.6c-0.101-0.167-0.233-0.301-0.4-0.4
	c-0.166-0.134-0.35-0.2-0.55-0.2h-6.4l-3.8-4.399l5.05-7.2l10.75-4.45l1.65,2.1C290.134,240.267,290.316,240.384,290.55,240.45z
	 M267.4,244.7l-2.85,1.8c-0.167,0.1-5.433,6.283-15.8,18.55H234.6c-0.1,0-0.184,0.033-0.25,0.101l-12.9,7.8l-7.5-14.5V237.3h25.25
	l20.5-5.55l4.25,1.6L267.4,244.7z M281.55,256.05l-1.2,6.851c-0.033,0.066-0.017,0.216,0.051,0.449
	c0.066,0.233,0.133,0.367,0.199,0.4L291.65,275l-7.101,15.2l-7.45,9.05l-3.399-5.2c-0.067-0.166-0.217-0.25-0.45-0.25h-6.3
	l-0.35,0.2l-5.2,5.65l-12.85-2.15l8.1-18.45l4.45,1.55c0.066,0.034,0.267-0.033,0.6-0.199l8-12.351V268l6.7-11.95H281.55z
	 M270.7,250.6l4.399,4.95l-6.3,12l-7.75,11.95l-4.45-1.55c-0.067-0.033-0.184-0.017-0.35,0.05s-0.267,0.134-0.3,0.2l-8.4,19.25
	l-18.65,0.899l-13.25-7.8l-3.25-9.149l3.5-7.25h5.35c0.067,0,0.15-0.017,0.25-0.051c0.033-0.033,0.067-0.05,0.1-0.05l13.15-8h14.2
	c0.066,0,0.133-0.017,0.2-0.05c0.067-0.033,0.133-0.066,0.2-0.1l15.15-17.351L270.7,250.6z M212.95,237.05v21.5
	c0,0.066,0.017,0.15,0.05,0.25l7.45,14.351h-4.9c-0.1,0-0.183,0.033-0.25,0.1c-0.1,0.033-0.167,0.1-0.2,0.2l-3.5,7.35l-10.15-2.25
	l-12.3-16.399c-0.066-0.101-0.15-0.15-0.25-0.15c-0.1-0.066-0.2-0.066-0.3,0l-7.6,2.95l-7.95-20.3c0-0.034,0.017-0.051,0.05-0.051
	l3.95-2l0.55-1.1l-1.65-7.2L192,224.4c0.033,0.066,0.117,0.133,0.25,0.199l20.3,12.301
	C212.683,236.967,212.817,237.017,212.95,237.05z M201.25,279.55l10.25,2.25l3.25,9.25c0.033,0.101,0.1,0.184,0.2,0.25l12.1,7.101
	l-18.75,0.449l-7.5,8.301l-16.65,6.1l-8.35-8.55l11.7-16.25L201.25,279.55z M178.6,330.05h5.4v5.4h-5.4V330.05z M253.35,354.4V349
	h5.4v5.4H253.35z M316,363.4l3.25-3.15l2.15,1.9l-2.851,3.449v4.25l-6.45-4.35L316,363.4z"/>
</svg>
