<?xml version="1.0" encoding="utf-8"?>
<!-- Generator: Adobe Illustrator 16.0.0, SVG Export Plug-In . SVG Version: 6.00 Build 0)  -->
<!DOCTYPE svg PUBLIC "-//W3C//DTD SVG 1.1//EN" "http://www.w3.org/Graphics/SVG/1.1/DTD/svg11.dtd">
<svg version="1.1" id="Capa_1" xmlns="http://www.w3.org/2000/svg" xmlns:xlink="http://www.w3.org/1999/xlink" x="0px" y="0px"
	 width="400px" height="400px" viewBox="0 0 400 400" style="enable-background:new 0 0 400 400;" xml:space="preserve">
<style type="text/css">
<![CDATA[
	.st0{fill-rule:evenodd;clip-rule:evenodd;fill:#FFFFFF;}
]]>
</style>
<path class="st0" d="M374.225,381.3H329V235.65c31.333,33.267,47,73.05,47,119.35C376,364.026,375.408,372.793,374.225,381.3z
	 M261.375,193.325c-1.71,1.708-3.435,3.325-5.175,4.85l0.075-0.05c-15.352,13.237-33.443,19.846-54.275,19.825
	c-21.075,0.021-39.351-6.738-54.825-20.275l0.05,0.025c-1.581-1.398-3.13-2.856-4.65-4.375C126.191,176.944,118,157.152,118,133.95
	c-0.001-23.205,8.19-43.014,24.575-59.425C158.987,58.14,178.795,49.949,202,49.95c23.202,0,42.994,8.191,59.375,24.575
	C277.79,90.937,285.998,110.746,286,133.95C285.997,157.152,277.789,176.943,261.375,193.325z M134.025,212.725
	c19.192,16.797,41.851,25.205,67.975,25.226c25.835-0.021,48.276-8.246,67.325-24.675l0.075-0.051
	c1.217-1.068,2.425-2.177,3.625-3.324c12.681,5.747,24.672,13.147,35.975,22.199v149.2H99V227.475
	c9.928-7.268,20.361-13.317,31.3-18.149c1.21,1.152,2.435,2.277,3.675,3.375L134.025,212.725z M79,229.55V381.3H27.8
	c-1.2-8.507-1.8-17.273-1.8-26.3c0-48.333,17.083-89.583,51.25-123.75C77.817,230.684,78.4,230.116,79,229.55z M196.5,544.95h9
	c-1.492,0.033-2.992,0.05-4.5,0.05C199.493,545,197.993,544.983,196.5,544.95z"/>
</svg>
