<?xml version="1.0" encoding="utf-8"?>
<!-- Generator: Adobe Illustrator 16.0.0, SVG Export Plug-In . SVG Version: 6.00 Build 0)  -->
<!DOCTYPE svg PUBLIC "-//W3C//DTD SVG 1.1//EN" "http://www.w3.org/Graphics/SVG/1.1/DTD/svg11.dtd">
<svg version="1.1" id="Capa_2" xmlns="http://www.w3.org/2000/svg" xmlns:xlink="http://www.w3.org/1999/xlink" x="0px" y="0px"
	 width="400px" height="350px" viewBox="0 0 400 350" style="enable-background:new 0 0 400 350;" xml:space="preserve">
<style type="text/css">
<![CDATA[
	.st0{fill-rule:evenodd;clip-rule:evenodd;fill:#FFFFFF;}
]]>
</style>
<path class="st0" d="M378.5,92c9.767,10.433,14.65,23.017,14.65,37.75s-4.884,27.3-14.65,37.7
	c-9.6,10.366-21.217,15.583-34.85,15.649V76.4C357.283,76.467,368.9,81.667,378.5,92z M97.95,189.9h38.4
	c7.767,0,12.6,3.517,14.5,10.55l30.75,115c1.9,7.033-1.033,10.55-8.8,10.55h-38.4c-7.767,0-12.6-3.517-14.5-10.55l-30.75-115
	C87.25,193.417,90.183,189.9,97.95,189.9z M329.6,21.15V243.2c0,8.333-6.8,9.066-20.399,2.2
	c-18.533-9.334-37.117-18.717-55.75-28.15c-37.4-18.833-56.517-28.533-57.35-29.1L31.7,176.3c-7.767-0.533-11.65-4.966-11.65-13.3
	v-61.65c0-8.333,3.883-12.767,11.65-13.3L196.1,76.2c0.833-0.534,19.95-10.233,57.35-29.1c18.633-9.434,37.217-18.817,55.75-28.15
	C322.8,12.083,329.6,12.817,329.6,21.15z"/>
</svg>
